<svg xmlns="http://www.w3.org/2000/svg" xmlns:xlink="http://www.w3.org/1999/xlink" width="860" height="514.2"><rect width="860" height="514.2" rx="5" ry="5" class="a"/><svg y="0%" x="0%"><circle cx="20" cy="20" r="6" fill="#ff5f58"/><circle cx="40" cy="20" r="6" fill="#ffbd2e"/><circle cx="60" cy="20" r="6" fill="#18c132"/></svg><svg height="434.2" viewBox="0 0 80 43.42" width="800" x="25" xmlns="http://www.w3.org/2000/svg" xmlns:xlink="http://www.w3.org/1999/xlink" y="60"><style>@keyframes n{0%{transform:translateX(-80px)}1.3%{transform:translateX(-160px)}2%{transform:translateX(-240px)}2.6%{transform:translateX(-320px)}3.3%{transform:translateX(-400px)}3.9%{transform:translateX(-480px)}4.6%{transform:translateX(-560px)}5.3%{transform:translateX(-640px)}5.9%{transform:translateX(-720px)}6.6%{transform:translateX(-800px)}7.2%{transform:translateX(-880px)}7.9%{transform:translateX(-960px)}8.6%{transform:translateX(-1040px)}9.2%{transform:translateX(-1120px)}9.9%{transform:translateX(-1200px)}10.5%{transform:translateX(-1280px)}11.2%{transform:translateX(-1360px)}11.8%{transform:translateX(-1440px)}12.5%{transform:translateX(-1520px)}13.2%{transform:translateX(-1600px)}13.8%{transform:translateX(-1680px)}14.5%{transform:translateX(-1760px)}15.1%{transform:translateX(-1840px)}15.8%{transform:translateX(-1920px)}16.4%{transform:translateX(-2000px)}17.1%{transform:translateX(-2080px)}17.8%{transform:translateX(-2160px)}18.4%{transform:translateX(-2240px)}19.1%{transform:translateX(-2320px)}19.7%{transform:translateX(-2400px)}20.4%{transform:translateX(-2480px)}21.1%{transform:translateX(-2560px)}21.7%{transform:translateX(-2640px)}22.4%{transform:translateX(-2720px)}23%{transform:translateX(-2800px)}23.7%{transform:translateX(-2880px)}24.3%{transform:translateX(-2960px)}25%{transform:translateX(-3040px)}25.7%{transform:translateX(-3120px)}26.3%{transform:translateX(-3200px)}27%{transform:translateX(-3280px)}27.6%{transform:translateX(-3360px)}28.3%{transform:translateX(-3440px)}28.9%{transform:translateX(-3520px)}29.6%{transform:translateX(-3600px)}30.3%{transform:translateX(-3680px)}30.9%{transform:translateX(-3760px)}31.6%{transform:translateX(-3840px)}32.2%{transform:translateX(-3920px)}32.9%{transform:translateX(-4000px)}33.6%{transform:translateX(-4080px)}34.2%{transform:translateX(-4160px)}34.9%{transform:translateX(-4240px)}35.5%{transform:translateX(-4320px)}36.2%{transform:translateX(-4400px)}36.8%{transform:translateX(-4480px)}37.5%{transform:translateX(-4560px)}38.2%{transform:translateX(-4640px)}38.8%{transform:translateX(-4720px)}39.5%{transform:translateX(-4800px)}40.1%{transform:translateX(-4880px)}40.8%{transform:translateX(-4960px)}41.4%{transform:translateX(-5040px)}42.1%{transform:translateX(-5120px)}42.8%{transform:translateX(-5200px)}43.4%{transform:translateX(-5280px)}44.1%{transform:translateX(-5360px)}44.7%{transform:translateX(-5440px)}45.4%{transform:translateX(-5520px)}46.1%{transform:translateX(-5600px)}48.7%{transform:translateX(-5680px)}49.3%{transform:translateX(-5760px)}50%{transform:translateX(-5840px)}53.9%{transform:translateX(-5920px)}54.6%{transform:translateX(-6000px)}58.6%{transform:translateX(-6080px)}59.2%{transform:translateX(-6160px)}59.9%{transform:translateX(-6240px)}60.5%{transform:translateX(-6320px)}61.2%{transform:translateX(-6400px)}61.8%{transform:translateX(-6480px)}62.5%{transform:translateX(-6560px)}63.2%{transform:translateX(-6640px)}63.8%{transform:translateX(-6720px)}70.4%{transform:translateX(-6800px)}71.1%{transform:translateX(-6880px)}75%{transform:translateX(-6960px)}75.7%{transform:translateX(-7040px)}76.3%{transform:translateX(-7120px)}77%{transform:translateX(-7200px)}77.6%{transform:translateX(-7280px)}78.3%{transform:translateX(-7360px)}98.7%{transform:translateX(-7440px)}to{transform:translateX(-7520px)}}.a{fill:#282d35}.f,.i,.j,.k{fill:#b9c0cb;white-space:pre}.i,.j,.k{fill:#66c2cd}.j,.k{fill:#dbab79}.k{fill:#a8cc8c}</style><g font-family="Monaco,Consolas,Menlo,'Bitstream Vera Sans Mono','Powerline Symbols',monospace" font-size="1.67"><defs><symbol id="1"><text y="1.67" class="f">$</text></symbol><symbol id="2"><text y="1.67" class="f">$</text><text x="2.004" y="1.67" class="f">npx</text></symbol><symbol id="3"><text y="1.67" class="f">$</text><text x="2.004" y="1.67" class="f">npx</text><text x="6.012" y="1.67" class="f">@bytespell/model-provider-usage-limits</text></symbol><symbol id="4"><text y="1.67" class="f">$</text><text x="2.004" y="1.67" class="f">npx</text><text x="6.012" y="1.67" class="f">@bytespell/model-provider-usage-limits</text><text x="45.09" y="1.67" class="f">--route</text></symbol><symbol id="5"><text y="1.67" class="f">$</text><text x="2.004" y="1.67" class="f">npx</text><text x="6.012" y="1.67" class="f">@bytespell/model-provider-usage-limits</text><text x="45.09" y="1.67" class="f">--route</text><text x="53.106" y="1.67" class="f">claude-sonnet-4-5</text></symbol><symbol id="6"><text y="1.67" class="f">┌</text><path fill="#66c2cd" d="M3.006 0h29v2.171h-29z"/><text x="3.006" y="1.67" style="white-space:pre">model-provider-usage-limits</text></symbol><symbol id="7"><text y="1.67" class="f">│</text></symbol><symbol id="8"><text y="1.67" class="f">◇</text><text x="3.006" y="1.67" class="f">Usage</text><text x="9.018" y="1.67" class="f">limits</text><text x="16.032" y="1.67" class="f">retrieved</text></symbol><symbol id="9"><text y="1.67" class="f">│</text><text x="3.006" y="1.67" class="f">Current</text><text x="11.022" y="1.67" class="f">Usage</text></symbol><symbol id="10"><text y="1.67" class="f">│</text><text x="3.006" y="1.67" class="i">anthropic</text></symbol><symbol id="11"><text y="1.67" class="f">│</text><text x="5.01" y="1.67" class="f">5h:</text><text x="14.028" y="1.67" class="j">45%</text><text x="18.036" y="1.67" class="j">used</text></symbol><symbol id="12"><text y="1.67" class="f">│</text><text x="5.01" y="1.67" class="f">7d:</text><text x="14.028" y="1.67" class="k">30%</text><text x="18.036" y="1.67" class="k">used</text></symbol><symbol id="13"><text y="1.67" class="f">│</text><text x="3.006" y="1.67" class="i">github-copilot</text></symbol><symbol id="14"><text y="1.67" class="f">│</text><text x="5.01" y="1.67" class="f">monthly:</text><text x="14.028" y="1.67" class="j">60%</text><text x="18.036" y="1.67" class="j">used</text></symbol><symbol id="15"><text y="1.67" class="f">◇</text><text x="3.006" y="1.67" class="f">Route</text><text x="9.018" y="1.67" class="f">calculated</text></symbol><symbol id="16"><text y="1.67" class="f">│</text><text x="3.006" y="1.67" class="k">✓</text><text x="5.01" y="1.67" class="k">github-copilot</text><text x="20.04" y="1.67" class="k">has</text><text x="24.048" y="1.67" class="k">most</text><text x="29.058" y="1.67" class="k">headroom</text><text x="38.076" y="1.67" class="k">(-15%</text><text x="44.088" y="1.67" class="k">pace)</text></symbol><symbol id="17"><text y="1.67" class="f">│</text><text x="3.006" y="1.67" class="k">●</text><text x="5.01" y="1.67" class="k">github-copilot</text><text x="21.042" y="1.67" class="f">score</text><text x="27.054" y="1.67" class="k">-15</text><text x="31.062" y="1.67" class="f">(pace:</text><text x="38.076" y="1.67" class="f">-15%)</text></symbol><symbol id="18"><text y="1.67" class="f">│</text><text x="3.006" y="1.67" class="f">○</text><text x="5.01" y="1.67" class="f">anthropic</text><text x="21.042" y="1.67" class="f">score</text><text x="27.054" y="1.67" class="j">8</text><text x="31.062" y="1.67" class="f">(pace:</text><text x="38.076" y="1.67" class="f">+8%)</text></symbol><symbol id="19"><text y="1.67" class="f">└</text><text x="3.006" y="1.67" class="k">Done!</text></symbol><symbol id="a"><path fill="transparent" d="M0 0h80v21H0z"/></symbol><symbol id="b"><path fill="#6f7683" d="M0 0h1.102v2.171H0z"/></symbol></defs><path class="a" d="M0 0h80v43.42H0z"/><g style="animation-duration:7.6s;animation-iteration-count:infinite;animation-name:n;animation-timing-function:steps(1,end)"><svg width="7600"><svg><use xlink:href="#a"/><use xlink:href="#b" x="-.004"/></svg><svg x="80"><use xlink:href="#a"/><use xlink:href="#b" x="1.996"/><use xlink:href="#1"/></svg><svg x="160"><use xlink:href="#a"/><use xlink:href="#b" x="2.996"/><text y="1.67" class="f">$</text><text x="2.004" y="1.67" class="f">n</text></svg><svg x="240"><use xlink:href="#a"/><use xlink:href="#b" x="3.996"/><text y="1.67" class="f">$</text><text x="2.004" y="1.67" class="f">np</text></svg><svg x="320"><use xlink:href="#a"/><use xlink:href="#b" x="4.996"/><use xlink:href="#2"/></svg><svg x="400"><use xlink:href="#a"/><use xlink:href="#b" x="5.996"/><use xlink:href="#2"/></svg><svg x="480"><use xlink:href="#a"/><use xlink:href="#b" x="6.996"/><text y="1.67" class="f">$</text><text x="2.004" y="1.67" class="f">npx</text><text x="6.012" y="1.67" class="f">@</text></svg><svg x="560"><use xlink:href="#a"/><use xlink:href="#b" x="7.996"/><text y="1.67" class="f">$</text><text x="2.004" y="1.67" class="f">npx</text><text x="6.012" y="1.67" class="f">@b</text></svg><svg x="640"><use xlink:href="#a"/><use xlink:href="#b" x="8.996"/><text y="1.67" class="f">$</text><text x="2.004" y="1.67" class="f">npx</text><text x="6.012" y="1.67" class="f">@by</text></svg><svg x="720"><use xlink:href="#a"/><use xlink:href="#b" x="9.996"/><text y="1.67" class="f">$</text><text x="2.004" y="1.67" class="f">npx</text><text x="6.012" y="1.67" class="f">@byt</text></svg><svg x="800"><use xlink:href="#a"/><use xlink:href="#b" x="10.996"/><text y="1.67" class="f">$</text><text x="2.004" y="1.67" class="f">npx</text><text x="6.012" y="1.67" class="f">@byte</text></svg><svg x="880"><use xlink:href="#a"/><use xlink:href="#b" x="11.996"/><text y="1.67" class="f">$</text><text x="2.004" y="1.67" class="f">npx</text><text x="6.012" y="1.67" class="f">@bytes</text></svg><svg x="960"><use xlink:href="#a"/><use xlink:href="#b" x="12.996"/><text y="1.67" class="f">$</text><text x="2.004" y="1.67" class="f">npx</text><text x="6.012" y="1.67" class="f">@bytesp</text></svg><svg x="1040"><use xlink:href="#a"/><use xlink:href="#b" x="13.996"/><text y="1.67" class="f">$</text><text x="2.004" y="1.67" class="f">npx</text><text x="6.012" y="1.67" class="f">@bytespe</text></svg><svg x="1120"><use xlink:href="#a"/><use xlink:href="#b" x="14.996"/><text y="1.67" class="f">$</text><text x="2.004" y="1.67" class="f">npx</text><text x="6.012" y="1.67" class="f">@bytespel</text></svg><svg x="1200"><use xlink:href="#a"/><use xlink:href="#b" x="15.996"/><text y="1.67" class="f">$</text><text x="2.004" y="1.67" class="f">npx</text><text x="6.012" y="1.67" class="f">@bytespell</text></svg><svg x="1280"><use xlink:href="#a"/><use xlink:href="#b" x="16.996"/><text y="1.67" class="f">$</text><text x="2.004" y="1.67" class="f">npx</text><text x="6.012" y="1.67" class="f">@bytespell/</text></svg><svg x="1360"><use xlink:href="#a"/><use xlink:href="#b" x="17.996"/><text y="1.67" class="f">$</text><text x="2.004" y="1.67" class="f">npx</text><text x="6.012" y="1.67" class="f">@bytespell/m</text></svg><svg x="1440"><use xlink:href="#a"/><use xlink:href="#b" x="18.996"/><text y="1.67" class="f">$</text><text x="2.004" y="1.67" class="f">npx</text><text x="6.012" y="1.67" class="f">@bytespell/mo</text></svg><svg x="1520"><use xlink:href="#a"/><use xlink:href="#b" x="19.996"/><text y="1.67" class="f">$</text><text x="2.004" y="1.67" class="f">npx</text><text x="6.012" y="1.67" class="f">@bytespell/mod</text></svg><svg x="1600"><use xlink:href="#a"/><use xlink:href="#b" x="20.996"/><text y="1.67" class="f">$</text><text x="2.004" y="1.67" class="f">npx</text><text x="6.012" y="1.67" class="f">@bytespell/mode</text></svg><svg x="1680"><use xlink:href="#a"/><use xlink:href="#b" x="21.996"/><text y="1.67" class="f">$</text><text x="2.004" y="1.67" class="f">npx</text><text x="6.012" y="1.67" class="f">@bytespell/model</text></svg><svg x="1760"><use xlink:href="#a"/><use xlink:href="#b" x="22.996"/><text y="1.67" class="f">$</text><text x="2.004" y="1.67" class="f">npx</text><text x="6.012" y="1.67" class="f">@bytespell/model-</text></svg><svg x="1840"><use xlink:href="#a"/><use xlink:href="#b" x="23.996"/><text y="1.67" class="f">$</text><text x="2.004" y="1.67" class="f">npx</text><text x="6.012" y="1.67" class="f">@bytespell/model-p</text></svg><svg x="1920"><use xlink:href="#a"/><use xlink:href="#b" x="24.996"/><text y="1.67" class="f">$</text><text x="2.004" y="1.67" class="f">npx</text><text x="6.012" y="1.67" class="f">@bytespell/model-pr</text></svg><svg x="2000"><use xlink:href="#a"/><use xlink:href="#b" x="25.996"/><text y="1.67" class="f">$</text><text x="2.004" y="1.67" class="f">npx</text><text x="6.012" y="1.67" class="f">@bytespell/model-pro</text></svg><svg x="2080"><use xlink:href="#a"/><use xlink:href="#b" x="26.996"/><text y="1.67" class="f">$</text><text x="2.004" y="1.67" class="f">npx</text><text x="6.012" y="1.67" class="f">@bytespell/model-prov</text></svg><svg x="2160"><use xlink:href="#a"/><use xlink:href="#b" x="27.996"/><text y="1.67" class="f">$</text><text x="2.004" y="1.67" class="f">npx</text><text x="6.012" y="1.67" class="f">@bytespell/model-provi</text></svg><svg x="2240"><use xlink:href="#a"/><use xlink:href="#b" x="28.996"/><text y="1.67" class="f">$</text><text x="2.004" y="1.67" class="f">npx</text><text x="6.012" y="1.67" class="f">@bytespell/model-provid</text></svg><svg x="2320"><use xlink:href="#a"/><use xlink:href="#b" x="29.996"/><text y="1.67" class="f">$</text><text x="2.004" y="1.67" class="f">npx</text><text x="6.012" y="1.67" class="f">@bytespell/model-provide</text></svg><svg x="2400"><use xlink:href="#a"/><use xlink:href="#b" x="30.996"/><text y="1.67" class="f">$</text><text x="2.004" y="1.67" class="f">npx</text><text x="6.012" y="1.67" class="f">@bytespell/model-provider</text></svg><svg x="2480"><use xlink:href="#a"/><use xlink:href="#b" x="31.996"/><text y="1.67" class="f">$</text><text x="2.004" y="1.67" class="f">npx</text><text x="6.012" y="1.67" class="f">@bytespell/model-provider-</text></svg><svg x="2560"><use xlink:href="#a"/><use xlink:href="#b" x="32.996"/><text y="1.67" class="f">$</text><text x="2.004" y="1.67" class="f">npx</text><text x="6.012" y="1.67" class="f">@bytespell/model-provider-u</text></svg><svg x="2640"><use xlink:href="#a"/><use xlink:href="#b" x="33.996"/><text y="1.67" class="f">$</text><text x="2.004" y="1.67" class="f">npx</text><text x="6.012" y="1.67" class="f">@bytespell/model-provider-us</text></svg><svg x="2720"><use xlink:href="#a"/><use xlink:href="#b" x="34.996"/><text y="1.67" class="f">$</text><text x="2.004" y="1.67" class="f">npx</text><text x="6.012" y="1.67" class="f">@bytespell/model-provider-usa</text></svg><svg x="2800"><use xlink:href="#a"/><use xlink:href="#b" x="35.996"/><text y="1.67" class="f">$</text><text x="2.004" y="1.67" class="f">npx</text><text x="6.012" y="1.67" class="f">@bytespell/model-provider-usag</text></svg><svg x="2880"><use xlink:href="#a"/><use xlink:href="#b" x="36.996"/><text y="1.67" class="f">$</text><text x="2.004" y="1.67" class="f">npx</text><text x="6.012" y="1.67" class="f">@bytespell/model-provider-usage</text></svg><svg x="2960"><use xlink:href="#a"/><use xlink:href="#b" x="37.996"/><text y="1.67" class="f">$</text><text x="2.004" y="1.67" class="f">npx</text><text x="6.012" y="1.67" class="f">@bytespell/model-provider-usage-</text></svg><svg x="3040"><use xlink:href="#a"/><use xlink:href="#b" x="38.996"/><text y="1.67" class="f">$</text><text x="2.004" y="1.67" class="f">npx</text><text x="6.012" y="1.67" class="f">@bytespell/model-provider-usage-l</text></svg><svg x="3120"><use xlink:href="#a"/><use xlink:href="#b" x="39.996"/><text y="1.67" class="f">$</text><text x="2.004" y="1.67" class="f">npx</text><text x="6.012" y="1.67" class="f">@bytespell/model-provider-usage-li</text></svg><svg x="3200"><use xlink:href="#a"/><use xlink:href="#b" x="40.996"/><text y="1.67" class="f">$</text><text x="2.004" y="1.67" class="f">npx</text><text x="6.012" y="1.67" class="f">@bytespell/model-provider-usage-lim</text></svg><svg x="3280"><use xlink:href="#a"/><use xlink:href="#b" x="41.996"/><text y="1.67" class="f">$</text><text x="2.004" y="1.67" class="f">npx</text><text x="6.012" y="1.67" class="f">@bytespell/model-provider-usage-limi</text></svg><svg x="3360"><use xlink:href="#a"/><use xlink:href="#b" x="42.996"/><text y="1.67" class="f">$</text><text x="2.004" y="1.67" class="f">npx</text><text x="6.012" y="1.67" class="f">@bytespell/model-provider-usage-limit</text></svg><svg x="3440"><use xlink:href="#a"/><use xlink:href="#b" x="43.996"/><use xlink:href="#3"/></svg><svg x="3520"><use xlink:href="#a"/><use xlink:href="#b" x="44.996"/><use xlink:href="#3"/></svg><svg x="3600"><use xlink:href="#a"/><use xlink:href="#b" x="45.996"/><text y="1.67" class="f">$</text><text x="2.004" y="1.67" class="f">npx</text><text x="6.012" y="1.67" class="f">@bytespell/model-provider-usage-limits</text><text x="45.09" y="1.67" class="f">-</text></svg><svg x="3680"><use xlink:href="#a"/><use xlink:href="#b" x="46.996"/><text y="1.67" class="f">$</text><text x="2.004" y="1.67" class="f">npx</text><text x="6.012" y="1.67" class="f">@bytespell/model-provider-usage-limits</text><text x="45.09" y="1.67" class="f">--</text></svg><svg x="3760"><use xlink:href="#a"/><use xlink:href="#b" x="47.996"/><text y="1.67" class="f">$</text><text x="2.004" y="1.67" class="f">npx</text><text x="6.012" y="1.67" class="f">@bytespell/model-provider-usage-limits</text><text x="45.09" y="1.67" class="f">--r</text></svg><svg x="3840"><use xlink:href="#a"/><use xlink:href="#b" x="48.996"/><text y="1.67" class="f">$</text><text x="2.004" y="1.67" class="f">npx</text><text x="6.012" y="1.67" class="f">@bytespell/model-provider-usage-limits</text><text x="45.09" y="1.67" class="f">--ro</text></svg><svg x="3920"><use xlink:href="#a"/><use xlink:href="#b" x="49.996"/><text y="1.67" class="f">$</text><text x="2.004" y="1.67" class="f">npx</text><text x="6.012" y="1.67" class="f">@bytespell/model-provider-usage-limits</text><text x="45.09" y="1.67" class="f">--rou</text></svg><svg x="4000"><use xlink:href="#a"/><use xlink:href="#b" x="50.996"/><text y="1.67" class="f">$</text><text x="2.004" y="1.67" class="f">npx</text><text x="6.012" y="1.67" class="f">@bytespell/model-provider-usage-limits</text><text x="45.09" y="1.67" class="f">--rout</text></svg><svg x="4080"><use xlink:href="#a"/><use xlink:href="#b" x="51.996"/><use xlink:href="#4"/></svg><svg x="4160"><use xlink:href="#a"/><use xlink:href="#b" x="52.996"/><use xlink:href="#4"/></svg><svg x="4240"><use xlink:href="#a"/><use xlink:href="#b" x="53.996"/><text y="1.67" class="f">$</text><text x="2.004" y="1.67" class="f">npx</text><text x="6.012" y="1.67" class="f">@bytespell/model-provider-usage-limits</text><text x="45.09" y="1.67" class="f">--route</text><text x="53.106" y="1.67" class="f">c</text></svg><svg x="4320"><use xlink:href="#a"/><use xlink:href="#b" x="54.996"/><text y="1.67" class="f">$</text><text x="2.004" y="1.67" class="f">npx</text><text x="6.012" y="1.67" class="f">@bytespell/model-provider-usage-limits</text><text x="45.09" y="1.67" class="f">--route</text><text x="53.106" y="1.67" class="f">cl</text></svg><svg x="4400"><use xlink:href="#a"/><use xlink:href="#b" x="55.996"/><text y="1.67" class="f">$</text><text x="2.004" y="1.67" class="f">npx</text><text x="6.012" y="1.67" class="f">@bytespell/model-provider-usage-limits</text><text x="45.09" y="1.67" class="f">--route</text><text x="53.106" y="1.67" class="f">cla</text></svg><svg x="4480"><use xlink:href="#a"/><use xlink:href="#b" x="56.996"/><text y="1.67" class="f">$</text><text x="2.004" y="1.67" class="f">npx</text><text x="6.012" y="1.67" class="f">@bytespell/model-provider-usage-limits</text><text x="45.09" y="1.67" class="f">--route</text><text x="53.106" y="1.67" class="f">clau</text></svg><svg x="4560"><use xlink:href="#a"/><use xlink:href="#b" x="57.996"/><text y="1.67" class="f">$</text><text x="2.004" y="1.67" class="f">npx</text><text x="6.012" y="1.67" class="f">@bytespell/model-provider-usage-limits</text><text x="45.09" y="1.67" class="f">--route</text><text x="53.106" y="1.67" class="f">claud</text></svg><svg x="4640"><use xlink:href="#a"/><use xlink:href="#b" x="58.996"/><text y="1.67" class="f">$</text><text x="2.004" y="1.67" class="f">npx</text><text x="6.012" y="1.67" class="f">@bytespell/model-provider-usage-limits</text><text x="45.09" y="1.67" class="f">--route</text><text x="53.106" y="1.67" class="f">claude</text></svg><svg x="4720"><use xlink:href="#a"/><use xlink:href="#b" x="59.996"/><text y="1.67" class="f">$</text><text x="2.004" y="1.67" class="f">npx</text><text x="6.012" y="1.67" class="f">@bytespell/model-provider-usage-limits</text><text x="45.09" y="1.67" class="f">--route</text><text x="53.106" y="1.67" class="f">claude-</text></svg><svg x="4800"><use xlink:href="#a"/><use xlink:href="#b" x="60.996"/><text y="1.67" class="f">$</text><text x="2.004" y="1.67" class="f">npx</text><text x="6.012" y="1.67" class="f">@bytespell/model-provider-usage-limits</text><text x="45.09" y="1.67" class="f">--route</text><text x="53.106" y="1.67" class="f">claude-s</text></svg><svg x="4880"><use xlink:href="#a"/><use xlink:href="#b" x="61.996"/><text y="1.67" class="f">$</text><text x="2.004" y="1.67" class="f">npx</text><text x="6.012" y="1.67" class="f">@bytespell/model-provider-usage-limits</text><text x="45.09" y="1.67" class="f">--route</text><text x="53.106" y="1.67" class="f">claude-so</text></svg><svg x="4960"><use xlink:href="#a"/><use xlink:href="#b" x="62.996"/><text y="1.67" class="f">$</text><text x="2.004" y="1.67" class="f">npx</text><text x="6.012" y="1.67" class="f">@bytespell/model-provider-usage-limits</text><text x="45.09" y="1.67" class="f">--route</text><text x="53.106" y="1.67" class="f">claude-son</text></svg><svg x="5040"><use xlink:href="#a"/><use xlink:href="#b" x="63.996"/><text y="1.67" class="f">$</text><text x="2.004" y="1.67" class="f">npx</text><text x="6.012" y="1.67" class="f">@bytespell/model-provider-usage-limits</text><text x="45.09" y="1.67" class="f">--route</text><text x="53.106" y="1.67" class="f">claude-sonn</text></svg><svg x="5120"><use xlink:href="#a"/><use xlink:href="#b" x="64.996"/><text y="1.67" class="f">$</text><text x="2.004" y="1.67" class="f">npx</text><text x="6.012" y="1.67" class="f">@bytespell/model-provider-usage-limits</text><text x="45.09" y="1.67" class="f">--route</text><text x="53.106" y="1.67" class="f">claude-sonne</text></svg><svg x="5200"><use xlink:href="#a"/><use xlink:href="#b" x="65.996"/><text y="1.67" class="f">$</text><text x="2.004" y="1.67" class="f">npx</text><text x="6.012" y="1.67" class="f">@bytespell/model-provider-usage-limits</text><text x="45.09" y="1.67" class="f">--route</text><text x="53.106" y="1.67" class="f">claude-sonnet</text></svg><svg x="5280"><use xlink:href="#a"/><use xlink:href="#b" x="66.996"/><text y="1.67" class="f">$</text><text x="2.004" y="1.67" class="f">npx</text><text x="6.012" y="1.67" class="f">@bytespell/model-provider-usage-limits</text><text x="45.09" y="1.67" class="f">--route</text><text x="53.106" y="1.67" class="f">claude-sonnet-</text></svg><svg x="5360"><use xlink:href="#a"/><use xlink:href="#b" x="67.996"/><text y="1.67" class="f">$</text><text x="2.004" y="1.67" class="f">npx</text><text x="6.012" y="1.67" class="f">@bytespell/model-provider-usage-limits</text><text x="45.09" y="1.67" class="f">--route</text><text x="53.106" y="1.67" class="f">claude-sonnet-4</text></svg><svg x="5440"><use xlink:href="#a"/><use xlink:href="#b" x="68.996"/><text y="1.67" class="f">$</text><text x="2.004" y="1.67" class="f">npx</text><text x="6.012" y="1.67" class="f">@bytespell/model-provider-usage-limits</text><text x="45.09" y="1.67" class="f">--route</text><text x="53.106" y="1.67" class="f">claude-sonnet-4-</text></svg><svg x="5520"><use xlink:href="#a"/><use xlink:href="#b" x="69.996"/><use xlink:href="#5"/></svg><svg x="5600"><use xlink:href="#a"/><use xlink:href="#b" x="-.004" y="2.146"/><use xlink:href="#5"/></svg><svg x="5680"><use xlink:href="#a"/><use xlink:href="#b" x="-.004" y="4.317"/><use xlink:href="#5"/></svg><svg x="5760"><use xlink:href="#a"/><use xlink:href="#b" x="-.004" y="6.488"/><use xlink:href="#5"/><use xlink:href="#6" y="4.342"/></svg><svg x="5840"><use xlink:href="#a"/><use xlink:href="#b" x="-.004" y="8.659"/><use xlink:href="#5"/><use xlink:href="#6" y="4.342"/><use xlink:href="#7" y="6.513"/></svg><svg x="5920"><use xlink:href="#a"/><use xlink:href="#b" x="-.004" y="10.83"/><use xlink:href="#5"/><use xlink:href="#6" y="4.342"/><use xlink:href="#7" y="6.513"/><use xlink:href="#8" y="8.684"/></svg><svg x="6000"><use xlink:href="#a"/><use xlink:href="#b" x="-.004" y="13.001"/><use xlink:href="#5"/><use xlink:href="#6" y="4.342"/><use xlink:href="#7" y="6.513"/><use xlink:href="#8" y="8.684"/><use xlink:href="#7" y="10.855"/></svg><svg x="6080"><use xlink:href="#a"/><use xlink:href="#b" x="-.004" y="15.172"/><use xlink:href="#5"/><use xlink:href="#6" y="4.342"/><use xlink:href="#7" y="6.513"/><use xlink:href="#8" y="8.684"/><use xlink:href="#7" y="10.855"/><use xlink:href="#9" y="13.026"/></svg><svg x="6160"><use xlink:href="#a"/><use xlink:href="#b" x="-.004" y="17.343"/><use xlink:href="#5"/><use xlink:href="#6" y="4.342"/><use xlink:href="#7" y="6.513"/><use xlink:href="#8" y="8.684"/><use xlink:href="#7" y="10.855"/><use xlink:href="#9" y="13.026"/><use xlink:href="#7" y="15.197"/></svg><svg x="6240"><use xlink:href="#a"/><use xlink:href="#b" x="-.004" y="19.514"/><use xlink:href="#5"/><use xlink:href="#6" y="4.342"/><use xlink:href="#7" y="6.513"/><use xlink:href="#8" y="8.684"/><use xlink:href="#7" y="10.855"/><use xlink:href="#9" y="13.026"/><use xlink:href="#7" y="15.197"/><use xlink:href="#10" y="17.368"/></svg><svg x="6320"><use xlink:href="#a"/><use xlink:href="#b" x="-.004" y="21.685"/><use xlink:href="#5"/><use xlink:href="#6" y="4.342"/><use xlink:href="#7" y="6.513"/><use xlink:href="#8" y="8.684"/><use xlink:href="#7" y="10.855"/><use xlink:href="#9" y="13.026"/><use xlink:href="#7" y="15.197"/><use xlink:href="#10" y="17.368"/><use xlink:href="#11" y="19.539"/></svg><svg x="6400"><use xlink:href="#a"/><use xlink:href="#b" x="-.004" y="23.856"/><use xlink:href="#5"/><use xlink:href="#6" y="4.342"/><use xlink:href="#7" y="6.513"/><use xlink:href="#8" y="8.684"/><use xlink:href="#7" y="10.855"/><use xlink:href="#9" y="13.026"/><use xlink:href="#7" y="15.197"/><use xlink:href="#10" y="17.368"/><use xlink:href="#11" y="19.539"/><use xlink:href="#12" y="21.71"/></svg><svg x="6480"><use xlink:href="#a"/><use xlink:href="#b" x="-.004" y="26.027"/><use xlink:href="#5"/><use xlink:href="#6" y="4.342"/><use xlink:href="#7" y="6.513"/><use xlink:href="#8" y="8.684"/><use xlink:href="#7" y="10.855"/><use xlink:href="#9" y="13.026"/><use xlink:href="#7" y="15.197"/><use xlink:href="#10" y="17.368"/><use xlink:href="#11" y="19.539"/><use xlink:href="#12" y="21.71"/><use xlink:href="#7" y="23.881"/></svg><svg x="6560"><use xlink:href="#a"/><use xlink:href="#b" x="-.004" y="28.198"/><use xlink:href="#5"/><use xlink:href="#6" y="4.342"/><use xlink:href="#7" y="6.513"/><use xlink:href="#8" y="8.684"/><use xlink:href="#7" y="10.855"/><use xlink:href="#9" y="13.026"/><use xlink:href="#7" y="15.197"/><use xlink:href="#10" y="17.368"/><use xlink:href="#11" y="19.539"/><use xlink:href="#12" y="21.71"/><use xlink:href="#7" y="23.881"/><use xlink:href="#13" y="26.052"/></svg><svg x="6640"><use xlink:href="#a"/><use xlink:href="#b" x="-.004" y="30.369"/><use xlink:href="#5"/><use xlink:href="#6" y="4.342"/><use xlink:href="#7" y="6.513"/><use xlink:href="#8" y="8.684"/><use xlink:href="#7" y="10.855"/><use xlink:href="#9" y="13.026"/><use xlink:href="#7" y="15.197"/><use xlink:href="#10" y="17.368"/><use xlink:href="#11" y="19.539"/><use xlink:href="#12" y="21.71"/><use xlink:href="#7" y="23.881"/><use xlink:href="#13" y="26.052"/><use xlink:href="#14" y="28.223"/></svg><svg x="6720"><use xlink:href="#a"/><use xlink:href="#b" x="-.004" y="32.54"/><use xlink:href="#5"/><use xlink:href="#6" y="4.342"/><use xlink:href="#7" y="6.513"/><use xlink:href="#8" y="8.684"/><use xlink:href="#7" y="10.855"/><use xlink:href="#9" y="13.026"/><use xlink:href="#7" y="15.197"/><use xlink:href="#10" y="17.368"/><use xlink:href="#11" y="19.539"/><use xlink:href="#12" y="21.71"/><use xlink:href="#7" y="23.881"/><use xlink:href="#13" y="26.052"/><use xlink:href="#14" y="28.223"/><use xlink:href="#7" y="30.394"/></svg><svg x="6800"><use xlink:href="#a"/><use xlink:href="#b" x="-.004" y="34.711"/><use xlink:href="#5"/><use xlink:href="#6" y="4.342"/><use xlink:href="#7" y="6.513"/><use xlink:href="#8" y="8.684"/><use xlink:href="#7" y="10.855"/><use xlink:href="#9" y="13.026"/><use xlink:href="#7" y="15.197"/><use xlink:href="#10" y="17.368"/><use xlink:href="#11" y="19.539"/><use xlink:href="#12" y="21.71"/><use xlink:href="#7" y="23.881"/><use xlink:href="#13" y="26.052"/><use xlink:href="#14" y="28.223"/><use xlink:href="#7" y="30.394"/><use xlink:href="#15" y="32.565"/></svg><svg x="6880"><use xlink:href="#a"/><use xlink:href="#b" x="-.004" y="36.882"/><use xlink:href="#5"/><use xlink:href="#6" y="4.342"/><use xlink:href="#7" y="6.513"/><use xlink:href="#8" y="8.684"/><use xlink:href="#7" y="10.855"/><use xlink:href="#9" y="13.026"/><use xlink:href="#7" y="15.197"/><use xlink:href="#10" y="17.368"/><use xlink:href="#11" y="19.539"/><use xlink:href="#12" y="21.71"/><use xlink:href="#7" y="23.881"/><use xlink:href="#13" y="26.052"/><use xlink:href="#14" y="28.223"/><use xlink:href="#7" y="30.394"/><use xlink:href="#15" y="32.565"/><use xlink:href="#7" y="34.736"/></svg><svg x="6960"><use xlink:href="#a"/><use xlink:href="#b" x="-.004" y="39.053"/><use xlink:href="#5"/><use xlink:href="#6" y="4.342"/><use xlink:href="#7" y="6.513"/><use xlink:href="#8" y="8.684"/><use xlink:href="#7" y="10.855"/><use xlink:href="#9" y="13.026"/><use xlink:href="#7" y="15.197"/><use xlink:href="#10" y="17.368"/><use xlink:href="#11" y="19.539"/><use xlink:href="#12" y="21.71"/><use xlink:href="#7" y="23.881"/><use xlink:href="#13" y="26.052"/><use xlink:href="#14" y="28.223"/><use xlink:href="#7" y="30.394"/><use xlink:href="#15" y="32.565"/><use xlink:href="#7" y="34.736"/><use xlink:href="#16" y="36.907"/></svg><svg x="7040"><use xlink:href="#a"/><use xlink:href="#b" x="-.004" y="41.224"/><use xlink:href="#5"/><use xlink:href="#6" y="4.342"/><use xlink:href="#7" y="6.513"/><use xlink:href="#8" y="8.684"/><use xlink:href="#7" y="10.855"/><use xlink:href="#9" y="13.026"/><use xlink:href="#7" y="15.197"/><use xlink:href="#10" y="17.368"/><use xlink:href="#11" y="19.539"/><use xlink:href="#12" y="21.71"/><use xlink:href="#7" y="23.881"/><use xlink:href="#13" y="26.052"/><use xlink:href="#14" y="28.223"/><use xlink:href="#7" y="30.394"/><use xlink:href="#15" y="32.565"/><use xlink:href="#7" y="34.736"/><use xlink:href="#16" y="36.907"/><use xlink:href="#7" y="39.078"/></svg><svg x="7120"><use xlink:href="#a"/><use xlink:href="#b" x="-.004" y="43.395"/><use xlink:href="#5"/><use xlink:href="#6" y="4.342"/><use xlink:href="#7" y="6.513"/><use xlink:href="#8" y="8.684"/><use xlink:href="#7" y="10.855"/><use xlink:href="#9" y="13.026"/><use xlink:href="#7" y="15.197"/><use xlink:href="#10" y="17.368"/><use xlink:href="#11" y="19.539"/><use xlink:href="#12" y="21.71"/><use xlink:href="#7" y="23.881"/><use xlink:href="#13" y="26.052"/><use xlink:href="#14" y="28.223"/><use xlink:href="#7" y="30.394"/><use xlink:href="#15" y="32.565"/><use xlink:href="#7" y="34.736"/><use xlink:href="#16" y="36.907"/><use xlink:href="#7" y="39.078"/><use xlink:href="#17" y="41.249"/></svg><svg x="7200"><use xlink:href="#a"/><use xlink:href="#b" x="-.004" y="43.395"/><use xlink:href="#6" y="2.171"/><use xlink:href="#7" y="4.342"/><use xlink:href="#8" y="6.513"/><use xlink:href="#7" y="8.684"/><use xlink:href="#9" y="10.855"/><use xlink:href="#7" y="13.026"/><use xlink:href="#10" y="15.197"/><use xlink:href="#11" y="17.368"/><use xlink:href="#12" y="19.539"/><use xlink:href="#7" y="21.71"/><use xlink:href="#13" y="23.881"/><use xlink:href="#14" y="26.052"/><use xlink:href="#7" y="28.223"/><use xlink:href="#15" y="30.394"/><use xlink:href="#7" y="32.565"/><use xlink:href="#16" y="34.736"/><use xlink:href="#7" y="36.907"/><use xlink:href="#17" y="39.078"/><use xlink:href="#18" y="41.249"/></svg><svg x="7280"><use xlink:href="#a"/><use xlink:href="#b" x="-.004" y="43.395"/><use xlink:href="#6"/><use xlink:href="#7" y="2.171"/><use xlink:href="#8" y="4.342"/><use xlink:href="#7" y="6.513"/><use xlink:href="#9" y="8.684"/><use xlink:href="#7" y="10.855"/><use xlink:href="#10" y="13.026"/><use xlink:href="#11" y="15.197"/><use xlink:href="#12" y="17.368"/><use xlink:href="#7" y="19.539"/><use xlink:href="#13" y="21.71"/><use xlink:href="#14" y="23.881"/><use xlink:href="#7" y="26.052"/><use xlink:href="#15" y="28.223"/><use xlink:href="#7" y="30.394"/><use xlink:href="#16" y="32.565"/><use xlink:href="#7" y="34.736"/><use xlink:href="#17" y="36.907"/><use xlink:href="#18" y="39.078"/><use xlink:href="#7" y="41.249"/></svg><svg x="7360"><use xlink:href="#a"/><use xlink:href="#b" x="-.004" y="43.395"/><use xlink:href="#7"/><use xlink:href="#8" y="2.171"/><use xlink:href="#7" y="4.342"/><use xlink:href="#9" y="6.513"/><use xlink:href="#7" y="8.684"/><use xlink:href="#10" y="10.855"/><use xlink:href="#11" y="13.026"/><use xlink:href="#12" y="15.197"/><use xlink:href="#7" y="17.368"/><use xlink:href="#13" y="19.539"/><use xlink:href="#14" y="21.71"/><use xlink:href="#7" y="23.881"/><use xlink:href="#15" y="26.052"/><use xlink:href="#7" y="28.223"/><use xlink:href="#16" y="30.394"/><use xlink:href="#7" y="32.565"/><use xlink:href="#17" y="34.736"/><use xlink:href="#18" y="36.907"/><use xlink:href="#7" y="39.078"/><use xlink:href="#19" y="41.249"/></svg><svg x="7440"><use xlink:href="#a"/><use xlink:href="#b" x="-.004" y="43.395"/><use xlink:href="#8"/><use xlink:href="#7" y="2.171"/><use xlink:href="#9" y="4.342"/><use xlink:href="#7" y="6.513"/><use xlink:href="#10" y="8.684"/><use xlink:href="#11" y="10.855"/><use xlink:href="#12" y="13.026"/><use xlink:href="#7" y="15.197"/><use xlink:href="#13" y="17.368"/><use xlink:href="#14" y="19.539"/><use xlink:href="#7" y="21.71"/><use xlink:href="#15" y="23.881"/><use xlink:href="#7" y="26.052"/><use xlink:href="#16" y="28.223"/><use xlink:href="#7" y="30.394"/><use xlink:href="#17" y="32.565"/><use xlink:href="#18" y="34.736"/><use xlink:href="#7" y="36.907"/><use xlink:href="#19" y="39.078"/></svg><svg x="7520"><use xlink:href="#a"/><use xlink:href="#b" x="1.996" y="43.395"/><use xlink:href="#8"/><use xlink:href="#7" y="2.171"/><use xlink:href="#9" y="4.342"/><use xlink:href="#7" y="6.513"/><use xlink:href="#10" y="8.684"/><use xlink:href="#11" y="10.855"/><use xlink:href="#12" y="13.026"/><use xlink:href="#7" y="15.197"/><use xlink:href="#13" y="17.368"/><use xlink:href="#14" y="19.539"/><use xlink:href="#7" y="21.71"/><use xlink:href="#15" y="23.881"/><use xlink:href="#7" y="26.052"/><use xlink:href="#16" y="28.223"/><use xlink:href="#7" y="30.394"/><use xlink:href="#17" y="32.565"/><use xlink:href="#18" y="34.736"/><use xlink:href="#7" y="36.907"/><use xlink:href="#19" y="39.078"/><use xlink:href="#1" y="43.42"/></svg></svg></g></g></svg></svg>