<svg xmlns="http://www.w3.org/2000/svg" xmlns:xlink="http://www.w3.org/1999/xlink" width="860" height="687.88"><rect width="860" height="687.88" rx="5" ry="5" class="a"/><svg y="0%" x="0%"><circle cx="20" cy="20" r="6" fill="#ff5f58"/><circle cx="40" cy="20" r="6" fill="#ffbd2e"/><circle cx="60" cy="20" r="6" fill="#18c132"/></svg><svg height="607.88" viewBox="0 0 80 60.788" width="800" x="25" xmlns="http://www.w3.org/2000/svg" xmlns:xlink="http://www.w3.org/1999/xlink" y="60"><style>@keyframes o{0%{transform:translateX(-80px)}2.58%{transform:translateX(-160px)}3.1%{transform:translateX(-240px)}4.65%{transform:translateX(-320px)}5.17%{transform:translateX(-400px)}5.68%{transform:translateX(-480px)}5.94%{transform:translateX(-560px)}6.2%{transform:translateX(-640px)}6.46%{transform:translateX(-720px)}6.72%{transform:translateX(-800px)}6.98%{transform:translateX(-880px)}7.24%{transform:translateX(-960px)}7.49%{transform:translateX(-1040px)}7.75%{transform:translateX(-1120px)}8.01%{transform:translateX(-1200px)}8.27%{transform:translateX(-1280px)}8.53%{transform:translateX(-1360px)}8.79%{transform:translateX(-1440px)}34.63%{transform:translateX(-1520px)}35.14%{transform:translateX(-1600px)}37.73%{transform:translateX(-1680px)}38.24%{transform:translateX(-1760px)}39.79%{transform:translateX(-1840px)}40.31%{transform:translateX(-1920px)}40.83%{transform:translateX(-2000px)}41.09%{transform:translateX(-2080px)}41.34%{transform:translateX(-2160px)}41.6%{transform:translateX(-2240px)}41.86%{transform:translateX(-2320px)}42.12%{transform:translateX(-2400px)}42.38%{transform:translateX(-2480px)}42.64%{transform:translateX(-2560px)}42.89%{transform:translateX(-2640px)}43.15%{transform:translateX(-2720px)}43.41%{transform:translateX(-2800px)}43.67%{transform:translateX(-2880px)}45.48%{transform:translateX(-2960px)}45.74%{transform:translateX(-3040px)}45.99%{transform:translateX(-3120px)}46.25%{transform:translateX(-3200px)}46.51%{transform:translateX(-3280px)}46.77%{transform:translateX(-3360px)}47.03%{transform:translateX(-3440px)}47.29%{transform:translateX(-3520px)}47.55%{transform:translateX(-3600px)}47.8%{transform:translateX(-3680px)}99.48%{transform:translateX(-3760px)}to{transform:translateX(-3840px)}}.a{fill:#282d35}.f,.g,.j,.k,.l{fill:#b9c0cb;white-space:pre}.g,.j,.k,.l{fill:#6f7783}.j,.k,.l{fill:#a8cc8c}.k,.l{fill:#66c2cd}.l{fill:#dbab79}</style><g font-family="Monaco,Consolas,Menlo,'Bitstream Vera Sans Mono','Powerline Symbols',monospace" font-size="1.67"><defs><symbol id="1"><text y="1.67" class="f">$</text><text x="2.004" y="1.67" class="f">npx</text><text x="6.012" y="1.67" class="f">@bytespell/model-provider-usage-limits</text></symbol><symbol id="2"><text y="1.67" class="g">┌</text><path fill="#66c2cd" d="M3.006 0h29v2.171h-29z"/><text x="3.006" y="1.67" style="white-space:pre">model-provider-usage-limits</text></symbol><symbol id="3"><text y="1.67" class="g">│</text></symbol><symbol id="4"><text y="1.67" class="j">◇</text><text x="3.006" y="1.67" class="f">Usage</text><text x="9.018" y="1.67" class="f">limits</text><text x="16.032" y="1.67" class="f">retrieved</text></symbol><symbol id="5"><text y="1.67" class="j">◇</text><text x="3.006" y="1.67" class="f">Current</text><text x="11.022" y="1.67" class="f">Usage</text><text x="17.034" y="1.67" class="g">────────────╮</text></symbol><symbol id="6"><text y="1.67" class="g">│</text><text x="29.058" y="1.67" class="g">│</text></symbol><symbol id="7"><text y="1.67" class="g">│</text><text x="3.006" y="1.67" class="k">anthropic</text><text x="29.058" y="1.67" class="g">│</text></symbol><symbol id="8"><text y="1.67" class="g">│</text><text x="5.01" y="1.67" class="f">5h:</text><text x="14.028" y="1.67" class="l">45%</text><text x="18.036" y="1.67" class="l">used</text><text x="29.058" y="1.67" class="g">│</text></symbol><symbol id="9"><text y="1.67" class="g">│</text><text x="5.01" y="1.67" class="f">7d:</text><text x="14.028" y="1.67" class="j">30%</text><text x="18.036" y="1.67" class="j">used</text><text x="29.058" y="1.67" class="g">│</text></symbol><symbol id="10"><text y="1.67" class="g">│</text><text x="5.01" y="1.67" class="f">plan:</text><text x="14.028" y="1.67" class="f">pro</text><text x="29.058" y="1.67" class="g">│</text></symbol><symbol id="11"><text y="1.67" class="g">│</text><text x="3.006" y="1.67" class="k">github-copilot</text><text x="29.058" y="1.67" class="g">│</text></symbol><symbol id="12"><text y="1.67" class="g">│</text><text x="5.01" y="1.67" class="f">monthly:</text><text x="19.038" y="1.67" class="l">60%</text><text x="23.046" y="1.67" class="l">used</text><text x="29.058" y="1.67" class="g">│</text></symbol><symbol id="13"><text y="1.67" class="g">├────────────────────────────╯</text></symbol><symbol id="14"><text y="1.67" class="g">└</text><text x="3.006" y="1.67" class="j">Done!</text></symbol><symbol id="15"><text y="1.67" class="f">$</text><text x="2.004" y="1.67" class="f">npx</text><text x="6.012" y="1.67" class="f">@bytespell/model-provider-usage-limits</text><text x="45.09" y="1.67" class="f">--route</text><text x="53.106" y="1.67" class="f">claude-sonnet-4-5</text></symbol><symbol id="16"><text y="1.67" class="j">◇</text><text x="3.006" y="1.67" class="f">Route</text><text x="9.018" y="1.67" class="f">calculated</text></symbol><symbol id="17"><text y="1.67" class="j">◇</text><text x="3.006" y="1.67" class="j">✓</text><text x="5.01" y="1.67" class="j">github-copilot</text><text x="20.04" y="1.67" class="j">has</text><text x="24.048" y="1.67" class="j">most</text><text x="29.058" y="1.67" class="j">headroom</text><text x="38.076" y="1.67" class="j">(-15%</text><text x="44.088" y="1.67" class="j">pace)</text><text x="50.1" y="1.67" class="g">─╮</text></symbol><symbol id="18"><text y="1.67" class="g">│</text><text x="51.102" y="1.67" class="g">│</text></symbol><symbol id="19"><text y="1.67" class="g">│</text><text x="3.006" y="1.67" class="j">●</text><text x="5.01" y="1.67" class="j">github-copilot</text><text x="21.042" y="1.67" class="f">score</text><text x="27.054" y="1.67" class="j">-15</text><text x="31.062" y="1.67" class="f">(pace:</text><text x="38.076" y="1.67" class="f">-15%)</text><text x="51.102" y="1.67" class="g">│</text></symbol><symbol id="20"><text y="1.67" class="g">│</text><text x="3.006" y="1.67" class="f">○</text><text x="5.01" y="1.67" class="f">anthropic</text><text x="16.032" y="1.67" class="f">score</text><text x="22.044" y="1.67" class="j">-5</text><text x="25.05" y="1.67" class="f">(pace:</text><text x="32.064" y="1.67" class="f">-5%)</text><text x="51.102" y="1.67" class="g">│</text></symbol><symbol id="21"><text y="1.67" class="g">├──────────────────────────────────────────────────╯</text></symbol><symbol id="a"><path fill="transparent" d="M0 0h80v29H0z"/></symbol><symbol id="b"><path fill="#6f7683" d="M0 0h1.102v2.171H0z"/></symbol></defs><path class="a" d="M0 0h80v60.788H0z"/><g style="animation-duration:19.35s;animation-iteration-count:infinite;animation-name:o;animation-timing-function:steps(1,end)"><svg width="3920"><svg><use xlink:href="#a"/><use xlink:href="#b" x="-.004"/></svg><svg x="80"><use xlink:href="#a"/><use xlink:href="#b" x="-.004" y="2.146"/><use xlink:href="#1"/></svg><svg x="160"><use xlink:href="#a"/><use xlink:href="#b" x="-.004" y="4.317"/><use xlink:href="#1"/><use xlink:href="#2" y="2.171"/></svg><svg x="240"><use xlink:href="#a"/><use xlink:href="#b" x="-.004" y="6.488"/><use xlink:href="#1"/><use xlink:href="#2" y="2.171"/><use xlink:href="#3" y="4.342"/></svg><svg x="320"><use xlink:href="#a"/><use xlink:href="#b" x="-.004" y="8.659"/><use xlink:href="#1"/><use xlink:href="#2" y="2.171"/><use xlink:href="#3" y="4.342"/><use xlink:href="#4" y="6.513"/></svg><svg x="400"><use xlink:href="#a"/><use xlink:href="#b" x="-.004" y="10.83"/><use xlink:href="#1"/><use xlink:href="#2" y="2.171"/><use xlink:href="#3" y="4.342"/><use xlink:href="#4" y="6.513"/><use xlink:href="#3" y="8.684"/></svg><svg x="480"><use xlink:href="#a"/><use xlink:href="#b" x="-.004" y="13.001"/><use xlink:href="#1"/><use xlink:href="#2" y="2.171"/><use xlink:href="#3" y="4.342"/><use xlink:href="#4" y="6.513"/><use xlink:href="#3" y="8.684"/><use xlink:href="#5" y="10.855"/></svg><svg x="560"><use xlink:href="#a"/><use xlink:href="#b" x="-.004" y="15.172"/><use xlink:href="#1"/><use xlink:href="#2" y="2.171"/><use xlink:href="#3" y="4.342"/><use xlink:href="#4" y="6.513"/><use xlink:href="#3" y="8.684"/><use xlink:href="#5" y="10.855"/><use xlink:href="#6" y="13.026"/></svg><svg x="640"><use xlink:href="#a"/><use xlink:href="#b" x="-.004" y="17.343"/><use xlink:href="#1"/><use xlink:href="#2" y="2.171"/><use xlink:href="#3" y="4.342"/><use xlink:href="#4" y="6.513"/><use xlink:href="#3" y="8.684"/><use xlink:href="#5" y="10.855"/><use xlink:href="#6" y="13.026"/><use xlink:href="#7" y="15.197"/></svg><svg x="720"><use xlink:href="#a"/><use xlink:href="#b" x="-.004" y="19.514"/><use xlink:href="#1"/><use xlink:href="#2" y="2.171"/><use xlink:href="#3" y="4.342"/><use xlink:href="#4" y="6.513"/><use xlink:href="#3" y="8.684"/><use xlink:href="#5" y="10.855"/><use xlink:href="#6" y="13.026"/><use xlink:href="#7" y="15.197"/><use xlink:href="#8" y="17.368"/></svg><svg x="800"><use xlink:href="#a"/><use xlink:href="#b" x="-.004" y="21.685"/><use xlink:href="#1"/><use xlink:href="#2" y="2.171"/><use xlink:href="#3" y="4.342"/><use xlink:href="#4" y="6.513"/><use xlink:href="#3" y="8.684"/><use xlink:href="#5" y="10.855"/><use xlink:href="#6" y="13.026"/><use xlink:href="#7" y="15.197"/><use xlink:href="#8" y="17.368"/><use xlink:href="#9" y="19.539"/></svg><svg x="880"><use xlink:href="#a"/><use xlink:href="#b" x="-.004" y="23.856"/><use xlink:href="#1"/><use xlink:href="#2" y="2.171"/><use xlink:href="#3" y="4.342"/><use xlink:href="#4" y="6.513"/><use xlink:href="#3" y="8.684"/><use xlink:href="#5" y="10.855"/><use xlink:href="#6" y="13.026"/><use xlink:href="#7" y="15.197"/><use xlink:href="#8" y="17.368"/><use xlink:href="#9" y="19.539"/><use xlink:href="#10" y="21.71"/></svg><svg x="960"><use xlink:href="#a"/><use xlink:href="#b" x="-.004" y="26.027"/><use xlink:href="#1"/><use xlink:href="#2" y="2.171"/><use xlink:href="#3" y="4.342"/><use xlink:href="#4" y="6.513"/><use xlink:href="#3" y="8.684"/><use xlink:href="#5" y="10.855"/><use xlink:href="#6" y="13.026"/><use xlink:href="#7" y="15.197"/><use xlink:href="#8" y="17.368"/><use xlink:href="#9" y="19.539"/><use xlink:href="#10" y="21.71"/><use xlink:href="#6" y="23.881"/></svg><svg x="1040"><use xlink:href="#a"/><use xlink:href="#b" x="-.004" y="28.198"/><use xlink:href="#1"/><use xlink:href="#2" y="2.171"/><use xlink:href="#3" y="4.342"/><use xlink:href="#4" y="6.513"/><use xlink:href="#3" y="8.684"/><use xlink:href="#5" y="10.855"/><use xlink:href="#6" y="13.026"/><use xlink:href="#7" y="15.197"/><use xlink:href="#8" y="17.368"/><use xlink:href="#9" y="19.539"/><use xlink:href="#10" y="21.71"/><use xlink:href="#6" y="23.881"/><use xlink:href="#11" y="26.052"/></svg><svg x="1120"><use xlink:href="#a"/><use xlink:href="#b" x="-.004" y="30.369"/><use xlink:href="#1"/><use xlink:href="#2" y="2.171"/><use xlink:href="#3" y="4.342"/><use xlink:href="#4" y="6.513"/><use xlink:href="#3" y="8.684"/><use xlink:href="#5" y="10.855"/><use xlink:href="#6" y="13.026"/><use xlink:href="#7" y="15.197"/><use xlink:href="#8" y="17.368"/><use xlink:href="#9" y="19.539"/><use xlink:href="#10" y="21.71"/><use xlink:href="#6" y="23.881"/><use xlink:href="#11" y="26.052"/><use xlink:href="#12" y="28.223"/></svg><svg x="1200"><use xlink:href="#a"/><use xlink:href="#b" x="-.004" y="32.54"/><use xlink:href="#1"/><use xlink:href="#2" y="2.171"/><use xlink:href="#3" y="4.342"/><use xlink:href="#4" y="6.513"/><use xlink:href="#3" y="8.684"/><use xlink:href="#5" y="10.855"/><use xlink:href="#6" y="13.026"/><use xlink:href="#7" y="15.197"/><use xlink:href="#8" y="17.368"/><use xlink:href="#9" y="19.539"/><use xlink:href="#10" y="21.71"/><use xlink:href="#6" y="23.881"/><use xlink:href="#11" y="26.052"/><use xlink:href="#12" y="28.223"/><use xlink:href="#6" y="30.394"/></svg><svg x="1280"><use xlink:href="#a"/><use xlink:href="#b" x="-.004" y="34.711"/><use xlink:href="#1"/><use xlink:href="#2" y="2.171"/><use xlink:href="#3" y="4.342"/><use xlink:href="#4" y="6.513"/><use xlink:href="#3" y="8.684"/><use xlink:href="#5" y="10.855"/><use xlink:href="#6" y="13.026"/><use xlink:href="#7" y="15.197"/><use xlink:href="#8" y="17.368"/><use xlink:href="#9" y="19.539"/><use xlink:href="#10" y="21.71"/><use xlink:href="#6" y="23.881"/><use xlink:href="#11" y="26.052"/><use xlink:href="#12" y="28.223"/><use xlink:href="#6" y="30.394"/><use xlink:href="#13" y="32.565"/></svg><svg x="1360"><use xlink:href="#a"/><use xlink:href="#b" x="-.004" y="36.882"/><use xlink:href="#1"/><use xlink:href="#2" y="2.171"/><use xlink:href="#3" y="4.342"/><use xlink:href="#4" y="6.513"/><use xlink:href="#3" y="8.684"/><use xlink:href="#5" y="10.855"/><use xlink:href="#6" y="13.026"/><use xlink:href="#7" y="15.197"/><use xlink:href="#8" y="17.368"/><use xlink:href="#9" y="19.539"/><use xlink:href="#10" y="21.71"/><use xlink:href="#6" y="23.881"/><use xlink:href="#11" y="26.052"/><use xlink:href="#12" y="28.223"/><use xlink:href="#6" y="30.394"/><use xlink:href="#13" y="32.565"/><use xlink:href="#3" y="34.736"/></svg><svg x="1440"><use xlink:href="#a"/><use xlink:href="#b" x="-.004" y="39.053"/><use xlink:href="#1"/><use xlink:href="#2" y="2.171"/><use xlink:href="#3" y="4.342"/><use xlink:href="#4" y="6.513"/><use xlink:href="#3" y="8.684"/><use xlink:href="#5" y="10.855"/><use xlink:href="#6" y="13.026"/><use xlink:href="#7" y="15.197"/><use xlink:href="#8" y="17.368"/><use xlink:href="#9" y="19.539"/><use xlink:href="#10" y="21.71"/><use xlink:href="#6" y="23.881"/><use xlink:href="#11" y="26.052"/><use xlink:href="#12" y="28.223"/><use xlink:href="#6" y="30.394"/><use xlink:href="#13" y="32.565"/><use xlink:href="#3" y="34.736"/><use xlink:href="#14" y="36.907"/></svg><svg x="1520"><use xlink:href="#a"/><use xlink:href="#b" x="-.004" y="41.224"/><use xlink:href="#1"/><use xlink:href="#2" y="2.171"/><use xlink:href="#3" y="4.342"/><use xlink:href="#4" y="6.513"/><use xlink:href="#3" y="8.684"/><use xlink:href="#5" y="10.855"/><use xlink:href="#6" y="13.026"/><use xlink:href="#7" y="15.197"/><use xlink:href="#8" y="17.368"/><use xlink:href="#9" y="19.539"/><use xlink:href="#10" y="21.71"/><use xlink:href="#6" y="23.881"/><use xlink:href="#11" y="26.052"/><use xlink:href="#12" y="28.223"/><use xlink:href="#6" y="30.394"/><use xlink:href="#13" y="32.565"/><use xlink:href="#3" y="34.736"/><use xlink:href="#14" y="36.907"/></svg><svg x="1600"><use xlink:href="#a"/><use xlink:href="#b" x="-.004" y="43.395"/><use xlink:href="#1"/><use xlink:href="#2" y="2.171"/><use xlink:href="#3" y="4.342"/><use xlink:href="#4" y="6.513"/><use xlink:href="#3" y="8.684"/><use xlink:href="#5" y="10.855"/><use xlink:href="#6" y="13.026"/><use xlink:href="#7" y="15.197"/><use xlink:href="#8" y="17.368"/><use xlink:href="#9" y="19.539"/><use xlink:href="#10" y="21.71"/><use xlink:href="#6" y="23.881"/><use xlink:href="#11" y="26.052"/><use xlink:href="#12" y="28.223"/><use xlink:href="#6" y="30.394"/><use xlink:href="#13" y="32.565"/><use xlink:href="#3" y="34.736"/><use xlink:href="#14" y="36.907"/><use xlink:href="#15" y="41.249"/></svg><svg x="1680"><use xlink:href="#a"/><use xlink:href="#b" x="-.004" y="45.566"/><use xlink:href="#1"/><use xlink:href="#2" y="2.171"/><use xlink:href="#3" y="4.342"/><use xlink:href="#4" y="6.513"/><use xlink:href="#3" y="8.684"/><use xlink:href="#5" y="10.855"/><use xlink:href="#6" y="13.026"/><use xlink:href="#7" y="15.197"/><use xlink:href="#8" y="17.368"/><use xlink:href="#9" y="19.539"/><use xlink:href="#10" y="21.71"/><use xlink:href="#6" y="23.881"/><use xlink:href="#11" y="26.052"/><use xlink:href="#12" y="28.223"/><use xlink:href="#6" y="30.394"/><use xlink:href="#13" y="32.565"/><use xlink:href="#3" y="34.736"/><use xlink:href="#14" y="36.907"/><use xlink:href="#15" y="41.249"/><use xlink:href="#2" y="43.42"/></svg><svg x="1760"><use xlink:href="#a"/><use xlink:href="#b" x="-.004" y="47.737"/><use xlink:href="#1"/><use xlink:href="#2" y="2.171"/><use xlink:href="#3" y="4.342"/><use xlink:href="#4" y="6.513"/><use xlink:href="#3" y="8.684"/><use xlink:href="#5" y="10.855"/><use xlink:href="#6" y="13.026"/><use xlink:href="#7" y="15.197"/><use xlink:href="#8" y="17.368"/><use xlink:href="#9" y="19.539"/><use xlink:href="#10" y="21.71"/><use xlink:href="#6" y="23.881"/><use xlink:href="#11" y="26.052"/><use xlink:href="#12" y="28.223"/><use xlink:href="#6" y="30.394"/><use xlink:href="#13" y="32.565"/><use xlink:href="#3" y="34.736"/><use xlink:href="#14" y="36.907"/><use xlink:href="#15" y="41.249"/><use xlink:href="#2" y="43.42"/><use xlink:href="#3" y="45.591"/></svg><svg x="1840"><use xlink:href="#a"/><use xlink:href="#b" x="-.004" y="49.908"/><use xlink:href="#1"/><use xlink:href="#2" y="2.171"/><use xlink:href="#3" y="4.342"/><use xlink:href="#4" y="6.513"/><use xlink:href="#3" y="8.684"/><use xlink:href="#5" y="10.855"/><use xlink:href="#6" y="13.026"/><use xlink:href="#7" y="15.197"/><use xlink:href="#8" y="17.368"/><use xlink:href="#9" y="19.539"/><use xlink:href="#10" y="21.71"/><use xlink:href="#6" y="23.881"/><use xlink:href="#11" y="26.052"/><use xlink:href="#12" y="28.223"/><use xlink:href="#6" y="30.394"/><use xlink:href="#13" y="32.565"/><use xlink:href="#3" y="34.736"/><use xlink:href="#14" y="36.907"/><use xlink:href="#15" y="41.249"/><use xlink:href="#2" y="43.42"/><use xlink:href="#3" y="45.591"/><use xlink:href="#4" y="47.762"/></svg><svg x="1920"><use xlink:href="#a"/><use xlink:href="#b" x="-.004" y="52.079"/><use xlink:href="#1"/><use xlink:href="#2" y="2.171"/><use xlink:href="#3" y="4.342"/><use xlink:href="#4" y="6.513"/><use xlink:href="#3" y="8.684"/><use xlink:href="#5" y="10.855"/><use xlink:href="#6" y="13.026"/><use xlink:href="#7" y="15.197"/><use xlink:href="#8" y="17.368"/><use xlink:href="#9" y="19.539"/><use xlink:href="#10" y="21.71"/><use xlink:href="#6" y="23.881"/><use xlink:href="#11" y="26.052"/><use xlink:href="#12" y="28.223"/><use xlink:href="#6" y="30.394"/><use xlink:href="#13" y="32.565"/><use xlink:href="#3" y="34.736"/><use xlink:href="#14" y="36.907"/><use xlink:href="#15" y="41.249"/><use xlink:href="#2" y="43.42"/><use xlink:href="#3" y="45.591"/><use xlink:href="#4" y="47.762"/><use xlink:href="#3" y="49.933"/></svg><svg x="2000"><use xlink:href="#a"/><use xlink:href="#b" x="-.004" y="54.25"/><use xlink:href="#1"/><use xlink:href="#2" y="2.171"/><use xlink:href="#3" y="4.342"/><use xlink:href="#4" y="6.513"/><use xlink:href="#3" y="8.684"/><use xlink:href="#5" y="10.855"/><use xlink:href="#6" y="13.026"/><use xlink:href="#7" y="15.197"/><use xlink:href="#8" y="17.368"/><use xlink:href="#9" y="19.539"/><use xlink:href="#10" y="21.71"/><use xlink:href="#6" y="23.881"/><use xlink:href="#11" y="26.052"/><use xlink:href="#12" y="28.223"/><use xlink:href="#6" y="30.394"/><use xlink:href="#13" y="32.565"/><use xlink:href="#3" y="34.736"/><use xlink:href="#14" y="36.907"/><use xlink:href="#15" y="41.249"/><use xlink:href="#2" y="43.42"/><use xlink:href="#3" y="45.591"/><use xlink:href="#4" y="47.762"/><use xlink:href="#3" y="49.933"/><use xlink:href="#5" y="52.104"/></svg><svg x="2080"><use xlink:href="#a"/><use xlink:href="#b" x="-.004" y="56.421"/><use xlink:href="#1"/><use xlink:href="#2" y="2.171"/><use xlink:href="#3" y="4.342"/><use xlink:href="#4" y="6.513"/><use xlink:href="#3" y="8.684"/><use xlink:href="#5" y="10.855"/><use xlink:href="#6" y="13.026"/><use xlink:href="#7" y="15.197"/><use xlink:href="#8" y="17.368"/><use xlink:href="#9" y="19.539"/><use xlink:href="#10" y="21.71"/><use xlink:href="#6" y="23.881"/><use xlink:href="#11" y="26.052"/><use xlink:href="#12" y="28.223"/><use xlink:href="#6" y="30.394"/><use xlink:href="#13" y="32.565"/><use xlink:href="#3" y="34.736"/><use xlink:href="#14" y="36.907"/><use xlink:href="#15" y="41.249"/><use xlink:href="#2" y="43.42"/><use xlink:href="#3" y="45.591"/><use xlink:href="#4" y="47.762"/><use xlink:href="#3" y="49.933"/><use xlink:href="#5" y="52.104"/><use xlink:href="#6" y="54.275"/></svg><svg x="2160"><use xlink:href="#a"/><use xlink:href="#b" x="-.004" y="58.592"/><use xlink:href="#1"/><use xlink:href="#2" y="2.171"/><use xlink:href="#3" y="4.342"/><use xlink:href="#4" y="6.513"/><use xlink:href="#3" y="8.684"/><use xlink:href="#5" y="10.855"/><use xlink:href="#6" y="13.026"/><use xlink:href="#7" y="15.197"/><use xlink:href="#8" y="17.368"/><use xlink:href="#9" y="19.539"/><use xlink:href="#10" y="21.71"/><use xlink:href="#6" y="23.881"/><use xlink:href="#11" y="26.052"/><use xlink:href="#12" y="28.223"/><use xlink:href="#6" y="30.394"/><use xlink:href="#13" y="32.565"/><use xlink:href="#3" y="34.736"/><use xlink:href="#14" y="36.907"/><use xlink:href="#15" y="41.249"/><use xlink:href="#2" y="43.42"/><use xlink:href="#3" y="45.591"/><use xlink:href="#4" y="47.762"/><use xlink:href="#3" y="49.933"/><use xlink:href="#5" y="52.104"/><use xlink:href="#6" y="54.275"/><use xlink:href="#7" y="56.446"/></svg><svg x="2240"><use xlink:href="#a"/><use xlink:href="#b" x="-.004" y="60.763"/><use xlink:href="#1"/><use xlink:href="#2" y="2.171"/><use xlink:href="#3" y="4.342"/><use xlink:href="#4" y="6.513"/><use xlink:href="#3" y="8.684"/><use xlink:href="#5" y="10.855"/><use xlink:href="#6" y="13.026"/><use xlink:href="#7" y="15.197"/><use xlink:href="#8" y="17.368"/><use xlink:href="#9" y="19.539"/><use xlink:href="#10" y="21.71"/><use xlink:href="#6" y="23.881"/><use xlink:href="#11" y="26.052"/><use xlink:href="#12" y="28.223"/><use xlink:href="#6" y="30.394"/><use xlink:href="#13" y="32.565"/><use xlink:href="#3" y="34.736"/><use xlink:href="#14" y="36.907"/><use xlink:href="#15" y="41.249"/><use xlink:href="#2" y="43.42"/><use xlink:href="#3" y="45.591"/><use xlink:href="#4" y="47.762"/><use xlink:href="#3" y="49.933"/><use xlink:href="#5" y="52.104"/><use xlink:href="#6" y="54.275"/><use xlink:href="#7" y="56.446"/><use xlink:href="#8" y="58.617"/></svg><svg x="2320"><use xlink:href="#a"/><use xlink:href="#b" x="-.004" y="60.763"/><use xlink:href="#2"/><use xlink:href="#3" y="2.171"/><use xlink:href="#4" y="4.342"/><use xlink:href="#3" y="6.513"/><use xlink:href="#5" y="8.684"/><use xlink:href="#6" y="10.855"/><use xlink:href="#7" y="13.026"/><use xlink:href="#8" y="15.197"/><use xlink:href="#9" y="17.368"/><use xlink:href="#10" y="19.539"/><use xlink:href="#6" y="21.71"/><use xlink:href="#11" y="23.881"/><use xlink:href="#12" y="26.052"/><use xlink:href="#6" y="28.223"/><use xlink:href="#13" y="30.394"/><use xlink:href="#3" y="32.565"/><use xlink:href="#14" y="34.736"/><use xlink:href="#15" y="39.078"/><use xlink:href="#2" y="41.249"/><use xlink:href="#3" y="43.42"/><use xlink:href="#4" y="45.591"/><use xlink:href="#3" y="47.762"/><use xlink:href="#5" y="49.933"/><use xlink:href="#6" y="52.104"/><use xlink:href="#7" y="54.275"/><use xlink:href="#8" y="56.446"/><use xlink:href="#9" y="58.617"/></svg><svg x="2400"><use xlink:href="#a"/><use xlink:href="#b" x="-.004" y="60.763"/><use xlink:href="#3"/><use xlink:href="#4" y="2.171"/><use xlink:href="#3" y="4.342"/><use xlink:href="#5" y="6.513"/><use xlink:href="#6" y="8.684"/><use xlink:href="#7" y="10.855"/><use xlink:href="#8" y="13.026"/><use xlink:href="#9" y="15.197"/><use xlink:href="#10" y="17.368"/><use xlink:href="#6" y="19.539"/><use xlink:href="#11" y="21.71"/><use xlink:href="#12" y="23.881"/><use xlink:href="#6" y="26.052"/><use xlink:href="#13" y="28.223"/><use xlink:href="#3" y="30.394"/><use xlink:href="#14" y="32.565"/><use xlink:href="#15" y="36.907"/><use xlink:href="#2" y="39.078"/><use xlink:href="#3" y="41.249"/><use xlink:href="#4" y="43.42"/><use xlink:href="#3" y="45.591"/><use xlink:href="#5" y="47.762"/><use xlink:href="#6" y="49.933"/><use xlink:href="#7" y="52.104"/><use xlink:href="#8" y="54.275"/><use xlink:href="#9" y="56.446"/><use xlink:href="#10" y="58.617"/></svg><svg x="2480"><use xlink:href="#a"/><use xlink:href="#b" x="-.004" y="60.763"/><use xlink:href="#4"/><use xlink:href="#3" y="2.171"/><use xlink:href="#5" y="4.342"/><use xlink:href="#6" y="6.513"/><use xlink:href="#7" y="8.684"/><use xlink:href="#8" y="10.855"/><use xlink:href="#9" y="13.026"/><use xlink:href="#10" y="15.197"/><use xlink:href="#6" y="17.368"/><use xlink:href="#11" y="19.539"/><use xlink:href="#12" y="21.71"/><use xlink:href="#6" y="23.881"/><use xlink:href="#13" y="26.052"/><use xlink:href="#3" y="28.223"/><use xlink:href="#14" y="30.394"/><use xlink:href="#15" y="34.736"/><use xlink:href="#2" y="36.907"/><use xlink:href="#3" y="39.078"/><use xlink:href="#4" y="41.249"/><use xlink:href="#3" y="43.42"/><use xlink:href="#5" y="45.591"/><use xlink:href="#6" y="47.762"/><use xlink:href="#7" y="49.933"/><use xlink:href="#8" y="52.104"/><use xlink:href="#9" y="54.275"/><use xlink:href="#10" y="56.446"/><use xlink:href="#6" y="58.617"/></svg><svg x="2560"><use xlink:href="#a"/><use xlink:href="#b" x="-.004" y="60.763"/><use xlink:href="#3"/><use xlink:href="#5" y="2.171"/><use xlink:href="#6" y="4.342"/><use xlink:href="#7" y="6.513"/><use xlink:href="#8" y="8.684"/><use xlink:href="#9" y="10.855"/><use xlink:href="#10" y="13.026"/><use xlink:href="#6" y="15.197"/><use xlink:href="#11" y="17.368"/><use xlink:href="#12" y="19.539"/><use xlink:href="#6" y="21.71"/><use xlink:href="#13" y="23.881"/><use xlink:href="#3" y="26.052"/><use xlink:href="#14" y="28.223"/><use xlink:href="#15" y="32.565"/><use xlink:href="#2" y="34.736"/><use xlink:href="#3" y="36.907"/><use xlink:href="#4" y="39.078"/><use xlink:href="#3" y="41.249"/><use xlink:href="#5" y="43.42"/><use xlink:href="#6" y="45.591"/><use xlink:href="#7" y="47.762"/><use xlink:href="#8" y="49.933"/><use xlink:href="#9" y="52.104"/><use xlink:href="#10" y="54.275"/><use xlink:href="#6" y="56.446"/><use xlink:href="#11" y="58.617"/></svg><svg x="2640"><use xlink:href="#a"/><use xlink:href="#b" x="-.004" y="60.763"/><use xlink:href="#5"/><use xlink:href="#6" y="2.171"/><use xlink:href="#7" y="4.342"/><use xlink:href="#8" y="6.513"/><use xlink:href="#9" y="8.684"/><use xlink:href="#10" y="10.855"/><use xlink:href="#6" y="13.026"/><use xlink:href="#11" y="15.197"/><use xlink:href="#12" y="17.368"/><use xlink:href="#6" y="19.539"/><use xlink:href="#13" y="21.71"/><use xlink:href="#3" y="23.881"/><use xlink:href="#14" y="26.052"/><use xlink:href="#15" y="30.394"/><use xlink:href="#2" y="32.565"/><use xlink:href="#3" y="34.736"/><use xlink:href="#4" y="36.907"/><use xlink:href="#3" y="39.078"/><use xlink:href="#5" y="41.249"/><use xlink:href="#6" y="43.42"/><use xlink:href="#7" y="45.591"/><use xlink:href="#8" y="47.762"/><use xlink:href="#9" y="49.933"/><use xlink:href="#10" y="52.104"/><use xlink:href="#6" y="54.275"/><use xlink:href="#11" y="56.446"/><use xlink:href="#12" y="58.617"/></svg><svg x="2720"><use xlink:href="#a"/><use xlink:href="#b" x="-.004" y="60.763"/><use xlink:href="#6"/><use xlink:href="#7" y="2.171"/><use xlink:href="#8" y="4.342"/><use xlink:href="#9" y="6.513"/><use xlink:href="#10" y="8.684"/><use xlink:href="#6" y="10.855"/><use xlink:href="#11" y="13.026"/><use xlink:href="#12" y="15.197"/><use xlink:href="#6" y="17.368"/><use xlink:href="#13" y="19.539"/><use xlink:href="#3" y="21.71"/><use xlink:href="#14" y="23.881"/><use xlink:href="#15" y="28.223"/><use xlink:href="#2" y="30.394"/><use xlink:href="#3" y="32.565"/><use xlink:href="#4" y="34.736"/><use xlink:href="#3" y="36.907"/><use xlink:href="#5" y="39.078"/><use xlink:href="#6" y="41.249"/><use xlink:href="#7" y="43.42"/><use xlink:href="#8" y="45.591"/><use xlink:href="#9" y="47.762"/><use xlink:href="#10" y="49.933"/><use xlink:href="#6" y="52.104"/><use xlink:href="#11" y="54.275"/><use xlink:href="#12" y="56.446"/><use xlink:href="#6" y="58.617"/></svg><svg x="2800"><use xlink:href="#a"/><use xlink:href="#b" x="-.004" y="60.763"/><use xlink:href="#7"/><use xlink:href="#8" y="2.171"/><use xlink:href="#9" y="4.342"/><use xlink:href="#10" y="6.513"/><use xlink:href="#6" y="8.684"/><use xlink:href="#11" y="10.855"/><use xlink:href="#12" y="13.026"/><use xlink:href="#6" y="15.197"/><use xlink:href="#13" y="17.368"/><use xlink:href="#3" y="19.539"/><use xlink:href="#14" y="21.71"/><use xlink:href="#15" y="26.052"/><use xlink:href="#2" y="28.223"/><use xlink:href="#3" y="30.394"/><use xlink:href="#4" y="32.565"/><use xlink:href="#3" y="34.736"/><use xlink:href="#5" y="36.907"/><use xlink:href="#6" y="39.078"/><use xlink:href="#7" y="41.249"/><use xlink:href="#8" y="43.42"/><use xlink:href="#9" y="45.591"/><use xlink:href="#10" y="47.762"/><use xlink:href="#6" y="49.933"/><use xlink:href="#11" y="52.104"/><use xlink:href="#12" y="54.275"/><use xlink:href="#6" y="56.446"/><use xlink:href="#13" y="58.617"/></svg><svg x="2880"><use xlink:href="#a"/><use xlink:href="#b" x="-.004" y="60.763"/><use xlink:href="#8"/><use xlink:href="#9" y="2.171"/><use xlink:href="#10" y="4.342"/><use xlink:href="#6" y="6.513"/><use xlink:href="#11" y="8.684"/><use xlink:href="#12" y="10.855"/><use xlink:href="#6" y="13.026"/><use xlink:href="#13" y="15.197"/><use xlink:href="#3" y="17.368"/><use xlink:href="#14" y="19.539"/><use xlink:href="#15" y="23.881"/><use xlink:href="#2" y="26.052"/><use xlink:href="#3" y="28.223"/><use xlink:href="#4" y="30.394"/><use xlink:href="#3" y="32.565"/><use xlink:href="#5" y="34.736"/><use xlink:href="#6" y="36.907"/><use xlink:href="#7" y="39.078"/><use xlink:href="#8" y="41.249"/><use xlink:href="#9" y="43.42"/><use xlink:href="#10" y="45.591"/><use xlink:href="#6" y="47.762"/><use xlink:href="#11" y="49.933"/><use xlink:href="#12" y="52.104"/><use xlink:href="#6" y="54.275"/><use xlink:href="#13" y="56.446"/><use xlink:href="#3" y="58.617"/></svg><svg x="2960"><use xlink:href="#a"/><use xlink:href="#b" x="-.004" y="60.763"/><use xlink:href="#9"/><use xlink:href="#10" y="2.171"/><use xlink:href="#6" y="4.342"/><use xlink:href="#11" y="6.513"/><use xlink:href="#12" y="8.684"/><use xlink:href="#6" y="10.855"/><use xlink:href="#13" y="13.026"/><use xlink:href="#3" y="15.197"/><use xlink:href="#14" y="17.368"/><use xlink:href="#15" y="21.71"/><use xlink:href="#2" y="23.881"/><use xlink:href="#3" y="26.052"/><use xlink:href="#4" y="28.223"/><use xlink:href="#3" y="30.394"/><use xlink:href="#5" y="32.565"/><use xlink:href="#6" y="34.736"/><use xlink:href="#7" y="36.907"/><use xlink:href="#8" y="39.078"/><use xlink:href="#9" y="41.249"/><use xlink:href="#10" y="43.42"/><use xlink:href="#6" y="45.591"/><use xlink:href="#11" y="47.762"/><use xlink:href="#12" y="49.933"/><use xlink:href="#6" y="52.104"/><use xlink:href="#13" y="54.275"/><use xlink:href="#3" y="56.446"/><use xlink:href="#16" y="58.617"/></svg><svg x="3040"><use xlink:href="#a"/><use xlink:href="#b" x="-.004" y="60.763"/><use xlink:href="#10"/><use xlink:href="#6" y="2.171"/><use xlink:href="#11" y="4.342"/><use xlink:href="#12" y="6.513"/><use xlink:href="#6" y="8.684"/><use xlink:href="#13" y="10.855"/><use xlink:href="#3" y="13.026"/><use xlink:href="#14" y="15.197"/><use xlink:href="#15" y="19.539"/><use xlink:href="#2" y="21.71"/><use xlink:href="#3" y="23.881"/><use xlink:href="#4" y="26.052"/><use xlink:href="#3" y="28.223"/><use xlink:href="#5" y="30.394"/><use xlink:href="#6" y="32.565"/><use xlink:href="#7" y="34.736"/><use xlink:href="#8" y="36.907"/><use xlink:href="#9" y="39.078"/><use xlink:href="#10" y="41.249"/><use xlink:href="#6" y="43.42"/><use xlink:href="#11" y="45.591"/><use xlink:href="#12" y="47.762"/><use xlink:href="#6" y="49.933"/><use xlink:href="#13" y="52.104"/><use xlink:href="#3" y="54.275"/><use xlink:href="#16" y="56.446"/><use xlink:href="#3" y="58.617"/></svg><svg x="3120"><use xlink:href="#a"/><use xlink:href="#b" x="-.004" y="60.763"/><use xlink:href="#6"/><use xlink:href="#11" y="2.171"/><use xlink:href="#12" y="4.342"/><use xlink:href="#6" y="6.513"/><use xlink:href="#13" y="8.684"/><use xlink:href="#3" y="10.855"/><use xlink:href="#14" y="13.026"/><use xlink:href="#15" y="17.368"/><use xlink:href="#2" y="19.539"/><use xlink:href="#3" y="21.71"/><use xlink:href="#4" y="23.881"/><use xlink:href="#3" y="26.052"/><use xlink:href="#5" y="28.223"/><use xlink:href="#6" y="30.394"/><use xlink:href="#7" y="32.565"/><use xlink:href="#8" y="34.736"/><use xlink:href="#9" y="36.907"/><use xlink:href="#10" y="39.078"/><use xlink:href="#6" y="41.249"/><use xlink:href="#11" y="43.42"/><use xlink:href="#12" y="45.591"/><use xlink:href="#6" y="47.762"/><use xlink:href="#13" y="49.933"/><use xlink:href="#3" y="52.104"/><use xlink:href="#16" y="54.275"/><use xlink:href="#3" y="56.446"/><use xlink:href="#17" y="58.617"/></svg><svg x="3200"><use xlink:href="#a"/><use xlink:href="#b" x="-.004" y="60.763"/><use xlink:href="#11"/><use xlink:href="#12" y="2.171"/><use xlink:href="#6" y="4.342"/><use xlink:href="#13" y="6.513"/><use xlink:href="#3" y="8.684"/><use xlink:href="#14" y="10.855"/><use xlink:href="#15" y="15.197"/><use xlink:href="#2" y="17.368"/><use xlink:href="#3" y="19.539"/><use xlink:href="#4" y="21.71"/><use xlink:href="#3" y="23.881"/><use xlink:href="#5" y="26.052"/><use xlink:href="#6" y="28.223"/><use xlink:href="#7" y="30.394"/><use xlink:href="#8" y="32.565"/><use xlink:href="#9" y="34.736"/><use xlink:href="#10" y="36.907"/><use xlink:href="#6" y="39.078"/><use xlink:href="#11" y="41.249"/><use xlink:href="#12" y="43.42"/><use xlink:href="#6" y="45.591"/><use xlink:href="#13" y="47.762"/><use xlink:href="#3" y="49.933"/><use xlink:href="#16" y="52.104"/><use xlink:href="#3" y="54.275"/><use xlink:href="#17" y="56.446"/><use xlink:href="#18" y="58.617"/></svg><svg x="3280"><use xlink:href="#a"/><use xlink:href="#b" x="-.004" y="60.763"/><use xlink:href="#12"/><use xlink:href="#6" y="2.171"/><use xlink:href="#13" y="4.342"/><use xlink:href="#3" y="6.513"/><use xlink:href="#14" y="8.684"/><use xlink:href="#15" y="13.026"/><use xlink:href="#2" y="15.197"/><use xlink:href="#3" y="17.368"/><use xlink:href="#4" y="19.539"/><use xlink:href="#3" y="21.71"/><use xlink:href="#5" y="23.881"/><use xlink:href="#6" y="26.052"/><use xlink:href="#7" y="28.223"/><use xlink:href="#8" y="30.394"/><use xlink:href="#9" y="32.565"/><use xlink:href="#10" y="34.736"/><use xlink:href="#6" y="36.907"/><use xlink:href="#11" y="39.078"/><use xlink:href="#12" y="41.249"/><use xlink:href="#6" y="43.42"/><use xlink:href="#13" y="45.591"/><use xlink:href="#3" y="47.762"/><use xlink:href="#16" y="49.933"/><use xlink:href="#3" y="52.104"/><use xlink:href="#17" y="54.275"/><use xlink:href="#18" y="56.446"/><use xlink:href="#19" y="58.617"/></svg><svg x="3360"><use xlink:href="#a"/><use xlink:href="#b" x="-.004" y="60.763"/><use xlink:href="#6"/><use xlink:href="#13" y="2.171"/><use xlink:href="#3" y="4.342"/><use xlink:href="#14" y="6.513"/><use xlink:href="#15" y="10.855"/><use xlink:href="#2" y="13.026"/><use xlink:href="#3" y="15.197"/><use xlink:href="#4" y="17.368"/><use xlink:href="#3" y="19.539"/><use xlink:href="#5" y="21.71"/><use xlink:href="#6" y="23.881"/><use xlink:href="#7" y="26.052"/><use xlink:href="#8" y="28.223"/><use xlink:href="#9" y="30.394"/><use xlink:href="#10" y="32.565"/><use xlink:href="#6" y="34.736"/><use xlink:href="#11" y="36.907"/><use xlink:href="#12" y="39.078"/><use xlink:href="#6" y="41.249"/><use xlink:href="#13" y="43.42"/><use xlink:href="#3" y="45.591"/><use xlink:href="#16" y="47.762"/><use xlink:href="#3" y="49.933"/><use xlink:href="#17" y="52.104"/><use xlink:href="#18" y="54.275"/><use xlink:href="#19" y="56.446"/><use xlink:href="#20" y="58.617"/></svg><svg x="3440"><use xlink:href="#a"/><use xlink:href="#b" x="-.004" y="60.763"/><use xlink:href="#13"/><use xlink:href="#3" y="2.171"/><use xlink:href="#14" y="4.342"/><use xlink:href="#15" y="8.684"/><use xlink:href="#2" y="10.855"/><use xlink:href="#3" y="13.026"/><use xlink:href="#4" y="15.197"/><use xlink:href="#3" y="17.368"/><use xlink:href="#5" y="19.539"/><use xlink:href="#6" y="21.71"/><use xlink:href="#7" y="23.881"/><use xlink:href="#8" y="26.052"/><use xlink:href="#9" y="28.223"/><use xlink:href="#10" y="30.394"/><use xlink:href="#6" y="32.565"/><use xlink:href="#11" y="34.736"/><use xlink:href="#12" y="36.907"/><use xlink:href="#6" y="39.078"/><use xlink:href="#13" y="41.249"/><use xlink:href="#3" y="43.42"/><use xlink:href="#16" y="45.591"/><use xlink:href="#3" y="47.762"/><use xlink:href="#17" y="49.933"/><use xlink:href="#18" y="52.104"/><use xlink:href="#19" y="54.275"/><use xlink:href="#20" y="56.446"/><use xlink:href="#18" y="58.617"/></svg><svg x="3520"><use xlink:href="#a"/><use xlink:href="#b" x="-.004" y="60.763"/><use xlink:href="#3"/><use xlink:href="#14" y="2.171"/><use xlink:href="#15" y="6.513"/><use xlink:href="#2" y="8.684"/><use xlink:href="#3" y="10.855"/><use xlink:href="#4" y="13.026"/><use xlink:href="#3" y="15.197"/><use xlink:href="#5" y="17.368"/><use xlink:href="#6" y="19.539"/><use xlink:href="#7" y="21.71"/><use xlink:href="#8" y="23.881"/><use xlink:href="#9" y="26.052"/><use xlink:href="#10" y="28.223"/><use xlink:href="#6" y="30.394"/><use xlink:href="#11" y="32.565"/><use xlink:href="#12" y="34.736"/><use xlink:href="#6" y="36.907"/><use xlink:href="#13" y="39.078"/><use xlink:href="#3" y="41.249"/><use xlink:href="#16" y="43.42"/><use xlink:href="#3" y="45.591"/><use xlink:href="#17" y="47.762"/><use xlink:href="#18" y="49.933"/><use xlink:href="#19" y="52.104"/><use xlink:href="#20" y="54.275"/><use xlink:href="#18" y="56.446"/><use xlink:href="#21" y="58.617"/></svg><svg x="3600"><use xlink:href="#a"/><use xlink:href="#b" x="-.004" y="60.763"/><use xlink:href="#14"/><use xlink:href="#15" y="4.342"/><use xlink:href="#2" y="6.513"/><use xlink:href="#3" y="8.684"/><use xlink:href="#4" y="10.855"/><use xlink:href="#3" y="13.026"/><use xlink:href="#5" y="15.197"/><use xlink:href="#6" y="17.368"/><use xlink:href="#7" y="19.539"/><use xlink:href="#8" y="21.71"/><use xlink:href="#9" y="23.881"/><use xlink:href="#10" y="26.052"/><use xlink:href="#6" y="28.223"/><use xlink:href="#11" y="30.394"/><use xlink:href="#12" y="32.565"/><use xlink:href="#6" y="34.736"/><use xlink:href="#13" y="36.907"/><use xlink:href="#3" y="39.078"/><use xlink:href="#16" y="41.249"/><use xlink:href="#3" y="43.42"/><use xlink:href="#17" y="45.591"/><use xlink:href="#18" y="47.762"/><use xlink:href="#19" y="49.933"/><use xlink:href="#20" y="52.104"/><use xlink:href="#18" y="54.275"/><use xlink:href="#21" y="56.446"/><use xlink:href="#3" y="58.617"/></svg><svg x="3680"><use xlink:href="#a"/><use xlink:href="#b" x="-.004" y="60.763"/><use xlink:href="#15" y="2.171"/><use xlink:href="#2" y="4.342"/><use xlink:href="#3" y="6.513"/><use xlink:href="#4" y="8.684"/><use xlink:href="#3" y="10.855"/><use xlink:href="#5" y="13.026"/><use xlink:href="#6" y="15.197"/><use xlink:href="#7" y="17.368"/><use xlink:href="#8" y="19.539"/><use xlink:href="#9" y="21.71"/><use xlink:href="#10" y="23.881"/><use xlink:href="#6" y="26.052"/><use xlink:href="#11" y="28.223"/><use xlink:href="#12" y="30.394"/><use xlink:href="#6" y="32.565"/><use xlink:href="#13" y="34.736"/><use xlink:href="#3" y="36.907"/><use xlink:href="#16" y="39.078"/><use xlink:href="#3" y="41.249"/><use xlink:href="#17" y="43.42"/><use xlink:href="#18" y="45.591"/><use xlink:href="#19" y="47.762"/><use xlink:href="#20" y="49.933"/><use xlink:href="#18" y="52.104"/><use xlink:href="#21" y="54.275"/><use xlink:href="#3" y="56.446"/><use xlink:href="#14" y="58.617"/></svg><svg x="3760"><use xlink:href="#a"/><use xlink:href="#b" x="-.004" y="60.763"/><use xlink:href="#15"/><use xlink:href="#2" y="2.171"/><use xlink:href="#3" y="4.342"/><use xlink:href="#4" y="6.513"/><use xlink:href="#3" y="8.684"/><use xlink:href="#5" y="10.855"/><use xlink:href="#6" y="13.026"/><use xlink:href="#7" y="15.197"/><use xlink:href="#8" y="17.368"/><use xlink:href="#9" y="19.539"/><use xlink:href="#10" y="21.71"/><use xlink:href="#6" y="23.881"/><use xlink:href="#11" y="26.052"/><use xlink:href="#12" y="28.223"/><use xlink:href="#6" y="30.394"/><use xlink:href="#13" y="32.565"/><use xlink:href="#3" y="34.736"/><use xlink:href="#16" y="36.907"/><use xlink:href="#3" y="39.078"/><use xlink:href="#17" y="41.249"/><use xlink:href="#18" y="43.42"/><use xlink:href="#19" y="45.591"/><use xlink:href="#20" y="47.762"/><use xlink:href="#18" y="49.933"/><use xlink:href="#21" y="52.104"/><use xlink:href="#3" y="54.275"/><use xlink:href="#14" y="56.446"/></svg><svg x="3840"><use xlink:href="#a"/><use xlink:href="#b" x="1.996" y="60.763"/><use xlink:href="#15"/><use xlink:href="#2" y="2.171"/><use xlink:href="#3" y="4.342"/><use xlink:href="#4" y="6.513"/><use xlink:href="#3" y="8.684"/><use xlink:href="#5" y="10.855"/><use xlink:href="#6" y="13.026"/><use xlink:href="#7" y="15.197"/><use xlink:href="#8" y="17.368"/><use xlink:href="#9" y="19.539"/><use xlink:href="#10" y="21.71"/><use xlink:href="#6" y="23.881"/><use xlink:href="#11" y="26.052"/><use xlink:href="#12" y="28.223"/><use xlink:href="#6" y="30.394"/><use xlink:href="#13" y="32.565"/><use xlink:href="#3" y="34.736"/><use xlink:href="#16" y="36.907"/><use xlink:href="#3" y="39.078"/><use xlink:href="#17" y="41.249"/><use xlink:href="#18" y="43.42"/><use xlink:href="#19" y="45.591"/><use xlink:href="#20" y="47.762"/><use xlink:href="#18" y="49.933"/><use xlink:href="#21" y="52.104"/><use xlink:href="#3" y="54.275"/><use xlink:href="#14" y="56.446"/><text y="62.458" class="f">$</text></svg></svg></g></g></svg></svg>