<svg xmlns="http://www.w3.org/2000/svg" xmlns:xlink="http://www.w3.org/1999/xlink" width="860" height="383.94"><rect width="860" height="383.94" rx="5" ry="5" class="a"/><svg y="0%" x="0%"><circle cx="20" cy="20" r="6" fill="#ff5f58"/><circle cx="40" cy="20" r="6" fill="#ffbd2e"/><circle cx="60" cy="20" r="6" fill="#18c132"/></svg><svg height="303.94" viewBox="0 0 80 30.394" width="800" x="25" xmlns="http://www.w3.org/2000/svg" xmlns:xlink="http://www.w3.org/1999/xlink" y="60"><style>@keyframes m{0%{transform:translateX(-80px)}.9%{transform:translateX(-160px)}1.4%{transform:translateX(-240px)}1.9%{transform:translateX(-320px)}2.4%{transform:translateX(-400px)}2.8%{transform:translateX(-480px)}3.3%{transform:translateX(-560px)}3.8%{transform:translateX(-640px)}4.2%{transform:translateX(-720px)}4.7%{transform:translateX(-800px)}5.2%{transform:translateX(-880px)}5.7%{transform:translateX(-960px)}6.1%{transform:translateX(-1040px)}6.6%{transform:translateX(-1120px)}7.1%{transform:translateX(-1200px)}7.5%{transform:translateX(-1280px)}8%{transform:translateX(-1360px)}8.5%{transform:translateX(-1440px)}9%{transform:translateX(-1520px)}9.4%{transform:translateX(-1600px)}9.9%{transform:translateX(-1680px)}10.4%{transform:translateX(-1760px)}10.8%{transform:translateX(-1840px)}11.3%{transform:translateX(-1920px)}11.8%{transform:translateX(-2000px)}12.3%{transform:translateX(-2080px)}12.7%{transform:translateX(-2160px)}13.2%{transform:translateX(-2240px)}13.7%{transform:translateX(-2320px)}14.2%{transform:translateX(-2400px)}14.6%{transform:translateX(-2480px)}15.1%{transform:translateX(-2560px)}15.6%{transform:translateX(-2640px)}16%{transform:translateX(-2720px)}16.5%{transform:translateX(-2800px)}17%{transform:translateX(-2880px)}17.5%{transform:translateX(-2960px)}17.9%{transform:translateX(-3040px)}18.4%{transform:translateX(-3120px)}18.9%{transform:translateX(-3200px)}19.3%{transform:translateX(-3280px)}19.8%{transform:translateX(-3360px)}20.3%{transform:translateX(-3440px)}20.8%{transform:translateX(-3520px)}25.5%{transform:translateX(-3600px)}25.9%{transform:translateX(-3680px)}26.4%{transform:translateX(-3760px)}26.9%{transform:translateX(-3840px)}27.4%{transform:translateX(-3920px)}27.8%{transform:translateX(-4000px)}28.3%{transform:translateX(-4080px)}42.5%{transform:translateX(-4160px)}43.4%{transform:translateX(-4240px)}44.3%{transform:translateX(-4320px)}44.8%{transform:translateX(-4400px)}45.3%{transform:translateX(-4480px)}45.8%{transform:translateX(-4560px)}46.2%{transform:translateX(-4640px)}46.7%{transform:translateX(-4720px)}47.2%{transform:translateX(-4800px)}47.6%{transform:translateX(-4880px)}48.1%{transform:translateX(-4960px)}48.6%{transform:translateX(-5040px)}49.1%{transform:translateX(-5120px)}49.5%{transform:translateX(-5200px)}50%{transform:translateX(-5280px)}50.5%{transform:translateX(-5360px)}50.9%{transform:translateX(-5440px)}51.4%{transform:translateX(-5520px)}51.9%{transform:translateX(-5600px)}52.4%{transform:translateX(-5680px)}52.8%{transform:translateX(-5760px)}53.3%{transform:translateX(-5840px)}53.8%{transform:translateX(-5920px)}54.2%{transform:translateX(-6000px)}54.7%{transform:translateX(-6080px)}55.2%{transform:translateX(-6160px)}55.7%{transform:translateX(-6240px)}56.1%{transform:translateX(-6320px)}56.6%{transform:translateX(-6400px)}57.1%{transform:translateX(-6480px)}57.5%{transform:translateX(-6560px)}58%{transform:translateX(-6640px)}58.5%{transform:translateX(-6720px)}59%{transform:translateX(-6800px)}59.4%{transform:translateX(-6880px)}59.9%{transform:translateX(-6960px)}60.4%{transform:translateX(-7040px)}60.8%{transform:translateX(-7120px)}61.3%{transform:translateX(-7200px)}61.8%{transform:translateX(-7280px)}62.3%{transform:translateX(-7360px)}62.7%{transform:translateX(-7440px)}63.2%{transform:translateX(-7520px)}63.7%{transform:translateX(-7600px)}64.2%{transform:translateX(-7680px)}64.6%{transform:translateX(-7760px)}65.1%{transform:translateX(-7840px)}65.6%{transform:translateX(-7920px)}66%{transform:translateX(-8000px)}66.5%{transform:translateX(-8080px)}67%{transform:translateX(-8160px)}67.5%{transform:translateX(-8240px)}67.9%{transform:translateX(-8320px)}68.4%{transform:translateX(-8400px)}68.9%{transform:translateX(-8480px)}69.3%{transform:translateX(-8560px)}69.8%{transform:translateX(-8640px)}70.3%{transform:translateX(-8720px)}70.8%{transform:translateX(-8800px)}71.2%{transform:translateX(-8880px)}71.7%{transform:translateX(-8960px)}72.2%{transform:translateX(-9040px)}72.6%{transform:translateX(-9120px)}73.1%{transform:translateX(-9200px)}73.6%{transform:translateX(-9280px)}74.1%{transform:translateX(-9360px)}74.5%{transform:translateX(-9440px)}75%{transform:translateX(-9520px)}75.5%{transform:translateX(-9600px)}75.9%{transform:translateX(-9680px)}76.4%{transform:translateX(-9760px)}81.1%{transform:translateX(-9840px)}81.6%{transform:translateX(-9920px)}82.5%{transform:translateX(-10000px)}83.5%{transform:translateX(-10080px)}99.1%{transform:translateX(-10160px)}to{transform:translateX(-10240px)}}.a{fill:#282d35}.f{fill:#b9c0cb}.f,.g,.h,.i,.j{white-space:pre}.g{fill:#b9c0cb;font-weight:700}.h,.i,.j{fill:#dbab79}.i,.j{fill:#a8cc8c}.j{fill:#66c2cd}</style><g font-family="Monaco,Consolas,Menlo,'Bitstream Vera Sans Mono','Powerline Symbols',monospace" font-size="1.67"><defs><symbol id="1"><text y="1.67" class="f">$</text></symbol><symbol id="2"><text y="1.67" class="f">$</text><text x="2.004" y="1.67" class="f">n</text></symbol><symbol id="3"><text y="1.67" class="f">$</text><text x="2.004" y="1.67" class="f">np</text></symbol><symbol id="4"><text y="1.67" class="f">$</text><text x="2.004" y="1.67" class="f">npx</text></symbol><symbol id="5"><text y="1.67" class="f">$</text><text x="2.004" y="1.67" class="f">npx</text><text x="6.012" y="1.67" class="f">@</text></symbol><symbol id="6"><text y="1.67" class="f">$</text><text x="2.004" y="1.67" class="f">npx</text><text x="6.012" y="1.67" class="f">@b</text></symbol><symbol id="7"><text y="1.67" class="f">$</text><text x="2.004" y="1.67" class="f">npx</text><text x="6.012" y="1.67" class="f">@by</text></symbol><symbol id="8"><text y="1.67" class="f">$</text><text x="2.004" y="1.67" class="f">npx</text><text x="6.012" y="1.67" class="f">@byt</text></symbol><symbol id="9"><text y="1.67" class="f">$</text><text x="2.004" y="1.67" class="f">npx</text><text x="6.012" y="1.67" class="f">@byte</text></symbol><symbol id="10"><text y="1.67" class="f">$</text><text x="2.004" y="1.67" class="f">npx</text><text x="6.012" y="1.67" class="f">@bytes</text></symbol><symbol id="11"><text y="1.67" class="f">$</text><text x="2.004" y="1.67" class="f">npx</text><text x="6.012" y="1.67" class="f">@bytesp</text></symbol><symbol id="12"><text y="1.67" class="f">$</text><text x="2.004" y="1.67" class="f">npx</text><text x="6.012" y="1.67" class="f">@bytespe</text></symbol><symbol id="13"><text y="1.67" class="f">$</text><text x="2.004" y="1.67" class="f">npx</text><text x="6.012" y="1.67" class="f">@bytespel</text></symbol><symbol id="14"><text y="1.67" class="f">$</text><text x="2.004" y="1.67" class="f">npx</text><text x="6.012" y="1.67" class="f">@bytespell</text></symbol><symbol id="15"><text y="1.67" class="f">$</text><text x="2.004" y="1.67" class="f">npx</text><text x="6.012" y="1.67" class="f">@bytespell/</text></symbol><symbol id="16"><text y="1.67" class="f">$</text><text x="2.004" y="1.67" class="f">npx</text><text x="6.012" y="1.67" class="f">@bytespell/m</text></symbol><symbol id="17"><text y="1.67" class="f">$</text><text x="2.004" y="1.67" class="f">npx</text><text x="6.012" y="1.67" class="f">@bytespell/mo</text></symbol><symbol id="18"><text y="1.67" class="f">$</text><text x="2.004" y="1.67" class="f">npx</text><text x="6.012" y="1.67" class="f">@bytespell/mod</text></symbol><symbol id="19"><text y="1.67" class="f">$</text><text x="2.004" y="1.67" class="f">npx</text><text x="6.012" y="1.67" class="f">@bytespell/mode</text></symbol><symbol id="20"><text y="1.67" class="f">$</text><text x="2.004" y="1.67" class="f">npx</text><text x="6.012" y="1.67" class="f">@bytespell/model</text></symbol><symbol id="21"><text y="1.67" class="f">$</text><text x="2.004" y="1.67" class="f">npx</text><text x="6.012" y="1.67" class="f">@bytespell/model-</text></symbol><symbol id="22"><text y="1.67" class="f">$</text><text x="2.004" y="1.67" class="f">npx</text><text x="6.012" y="1.67" class="f">@bytespell/model-p</text></symbol><symbol id="23"><text y="1.67" class="f">$</text><text x="2.004" y="1.67" class="f">npx</text><text x="6.012" y="1.67" class="f">@bytespell/model-pr</text></symbol><symbol id="24"><text y="1.67" class="f">$</text><text x="2.004" y="1.67" class="f">npx</text><text x="6.012" y="1.67" class="f">@bytespell/model-pro</text></symbol><symbol id="25"><text y="1.67" class="f">$</text><text x="2.004" y="1.67" class="f">npx</text><text x="6.012" y="1.67" class="f">@bytespell/model-prov</text></symbol><symbol id="26"><text y="1.67" class="f">$</text><text x="2.004" y="1.67" class="f">npx</text><text x="6.012" y="1.67" class="f">@bytespell/model-provi</text></symbol><symbol id="27"><text y="1.67" class="f">$</text><text x="2.004" y="1.67" class="f">npx</text><text x="6.012" y="1.67" class="f">@bytespell/model-provid</text></symbol><symbol id="28"><text y="1.67" class="f">$</text><text x="2.004" y="1.67" class="f">npx</text><text x="6.012" y="1.67" class="f">@bytespell/model-provide</text></symbol><symbol id="29"><text y="1.67" class="f">$</text><text x="2.004" y="1.67" class="f">npx</text><text x="6.012" y="1.67" class="f">@bytespell/model-provider</text></symbol><symbol id="30"><text y="1.67" class="f">$</text><text x="2.004" y="1.67" class="f">npx</text><text x="6.012" y="1.67" class="f">@bytespell/model-provider-</text></symbol><symbol id="31"><text y="1.67" class="f">$</text><text x="2.004" y="1.67" class="f">npx</text><text x="6.012" y="1.67" class="f">@bytespell/model-provider-u</text></symbol><symbol id="32"><text y="1.67" class="f">$</text><text x="2.004" y="1.67" class="f">npx</text><text x="6.012" y="1.67" class="f">@bytespell/model-provider-us</text></symbol><symbol id="33"><text y="1.67" class="f">$</text><text x="2.004" y="1.67" class="f">npx</text><text x="6.012" y="1.67" class="f">@bytespell/model-provider-usa</text></symbol><symbol id="34"><text y="1.67" class="f">$</text><text x="2.004" y="1.67" class="f">npx</text><text x="6.012" y="1.67" class="f">@bytespell/model-provider-usag</text></symbol><symbol id="35"><text y="1.67" class="f">$</text><text x="2.004" y="1.67" class="f">npx</text><text x="6.012" y="1.67" class="f">@bytespell/model-provider-usage</text></symbol><symbol id="36"><text y="1.67" class="f">$</text><text x="2.004" y="1.67" class="f">npx</text><text x="6.012" y="1.67" class="f">@bytespell/model-provider-usage-</text></symbol><symbol id="37"><text y="1.67" class="f">$</text><text x="2.004" y="1.67" class="f">npx</text><text x="6.012" y="1.67" class="f">@bytespell/model-provider-usage-l</text></symbol><symbol id="38"><text y="1.67" class="f">$</text><text x="2.004" y="1.67" class="f">npx</text><text x="6.012" y="1.67" class="f">@bytespell/model-provider-usage-li</text></symbol><symbol id="39"><text y="1.67" class="f">$</text><text x="2.004" y="1.67" class="f">npx</text><text x="6.012" y="1.67" class="f">@bytespell/model-provider-usage-lim</text></symbol><symbol id="40"><text y="1.67" class="f">$</text><text x="2.004" y="1.67" class="f">npx</text><text x="6.012" y="1.67" class="f">@bytespell/model-provider-usage-limi</text></symbol><symbol id="41"><text y="1.67" class="f">$</text><text x="2.004" y="1.67" class="f">npx</text><text x="6.012" y="1.67" class="f">@bytespell/model-provider-usage-limit</text></symbol><symbol id="42"><text y="1.67" class="f">$</text><text x="2.004" y="1.67" class="f">npx</text><text x="6.012" y="1.67" class="f">@bytespell/model-provider-usage-limits</text></symbol><symbol id="43"><text y="1.67" class="g">anthropic</text><text x="9.018" y="1.67" class="f">:</text></symbol><symbol id="44"><text x="2.004" y="1.67" class="f">5h:</text><text x="6.012" y="1.67" class="h">45%</text><text x="10.02" y="1.67" class="f">used</text></symbol><symbol id="45"><text x="2.004" y="1.67" class="f">7d:</text><text x="6.012" y="1.67" class="i">30%</text><text x="10.02" y="1.67" class="f">used</text></symbol><symbol id="46"><text y="1.67" class="g">github-copilot</text><text x="14.028" y="1.67" class="f">:</text></symbol><symbol id="47"><text x="2.004" y="1.67" class="f">monthly:</text><text x="11.022" y="1.67" class="h">60%</text><text x="15.03" y="1.67" class="f">used</text></symbol><symbol id="48"><text y="1.67" class="f">$</text><text x="2.004" y="1.67" class="f">npx</text><text x="6.012" y="1.67" class="f">@bytespell/model-provider-usage-limits</text><text x="45.09" y="1.67" class="f">--route</text></symbol><symbol id="49"><text y="1.67" class="f">$</text><text x="2.004" y="1.67" class="f">npx</text><text x="6.012" y="1.67" class="f">@bytespell/model-provider-usage-limits</text><text x="45.09" y="1.67" class="f">--route</text><text x="53.106" y="1.67" class="f">claude-sonnet-4-5</text></symbol><symbol id="50"><text y="1.67" class="g">github-copilot</text><text x="15.03" y="1.67" class="g">has</text><text x="19.038" y="1.67" class="g">most</text><text x="24.048" y="1.67" class="g">headroom</text><text x="33.066" y="1.67" class="g">(-15%</text><text x="39.078" y="1.67" class="g">pace)</text></symbol><symbol id="51"><text x="2.004" y="1.67" class="i">→</text><text x="4.008" y="1.67" class="j">github-copilot</text><text x="18.036" y="1.67" class="f">:</text><text x="20.04" y="1.67" class="f">score</text><text x="26.052" y="1.67" class="f">-15</text><text x="30.06" y="1.67" class="f">(pace:</text><text x="37.074" y="1.67" class="i">-15%</text><text x="41.082" y="1.67" class="f">)</text></symbol><symbol id="52"><text x="4.008" y="1.67" class="j">anthropic</text><text x="13.026" y="1.67" class="f">:</text><text x="15.03" y="1.67" class="f">score</text><text x="21.042" y="1.67" class="f">8</text><text x="23.046" y="1.67" class="f">(pace:</text><text x="30.06" y="1.67" class="h">+8%</text><text x="33.066" y="1.67" class="f">)</text></symbol><symbol id="a"><path fill="transparent" d="M0 0h80v15H0z"/></symbol><symbol id="b"><path fill="#6f7683" d="M0 0h1.102v2.171H0z"/></symbol></defs><path class="a" d="M0 0h80v30.394H0z"/><g style="animation-duration:10.6s;animation-iteration-count:infinite;animation-name:m;animation-timing-function:steps(1,end)"><svg width="10320"><svg><use xlink:href="#a"/><use xlink:href="#b" x="-.004"/></svg><svg x="80"><use xlink:href="#a"/><use xlink:href="#b" x="1.996"/><use xlink:href="#1"/></svg><svg x="160"><use xlink:href="#a"/><use xlink:href="#b" x="2.996"/><use xlink:href="#2"/></svg><svg x="240"><use xlink:href="#a"/><use xlink:href="#b" x="3.996"/><use xlink:href="#3"/></svg><svg x="320"><use xlink:href="#a"/><use xlink:href="#b" x="4.996"/><use xlink:href="#4"/></svg><svg x="400"><use xlink:href="#a"/><use xlink:href="#b" x="5.996"/><use xlink:href="#4"/></svg><svg x="480"><use xlink:href="#a"/><use xlink:href="#b" x="6.996"/><use xlink:href="#5"/></svg><svg x="560"><use xlink:href="#a"/><use xlink:href="#b" x="7.996"/><use xlink:href="#6"/></svg><svg x="640"><use xlink:href="#a"/><use xlink:href="#b" x="8.996"/><use xlink:href="#7"/></svg><svg x="720"><use xlink:href="#a"/><use xlink:href="#b" x="9.996"/><use xlink:href="#8"/></svg><svg x="800"><use xlink:href="#a"/><use xlink:href="#b" x="10.996"/><use xlink:href="#9"/></svg><svg x="880"><use xlink:href="#a"/><use xlink:href="#b" x="11.996"/><use xlink:href="#10"/></svg><svg x="960"><use xlink:href="#a"/><use xlink:href="#b" x="12.996"/><use xlink:href="#11"/></svg><svg x="1040"><use xlink:href="#a"/><use xlink:href="#b" x="13.996"/><use xlink:href="#12"/></svg><svg x="1120"><use xlink:href="#a"/><use xlink:href="#b" x="14.996"/><use xlink:href="#13"/></svg><svg x="1200"><use xlink:href="#a"/><use xlink:href="#b" x="15.996"/><use xlink:href="#14"/></svg><svg x="1280"><use xlink:href="#a"/><use xlink:href="#b" x="16.996"/><use xlink:href="#15"/></svg><svg x="1360"><use xlink:href="#a"/><use xlink:href="#b" x="17.996"/><use xlink:href="#16"/></svg><svg x="1440"><use xlink:href="#a"/><use xlink:href="#b" x="18.996"/><use xlink:href="#17"/></svg><svg x="1520"><use xlink:href="#a"/><use xlink:href="#b" x="19.996"/><use xlink:href="#18"/></svg><svg x="1600"><use xlink:href="#a"/><use xlink:href="#b" x="20.996"/><use xlink:href="#19"/></svg><svg x="1680"><use xlink:href="#a"/><use xlink:href="#b" x="21.996"/><use xlink:href="#20"/></svg><svg x="1760"><use xlink:href="#a"/><use xlink:href="#b" x="22.996"/><use xlink:href="#21"/></svg><svg x="1840"><use xlink:href="#a"/><use xlink:href="#b" x="23.996"/><use xlink:href="#22"/></svg><svg x="1920"><use xlink:href="#a"/><use xlink:href="#b" x="24.996"/><use xlink:href="#23"/></svg><svg x="2000"><use xlink:href="#a"/><use xlink:href="#b" x="25.996"/><use xlink:href="#24"/></svg><svg x="2080"><use xlink:href="#a"/><use xlink:href="#b" x="26.996"/><use xlink:href="#25"/></svg><svg x="2160"><use xlink:href="#a"/><use xlink:href="#b" x="27.996"/><use xlink:href="#26"/></svg><svg x="2240"><use xlink:href="#a"/><use xlink:href="#b" x="28.996"/><use xlink:href="#27"/></svg><svg x="2320"><use xlink:href="#a"/><use xlink:href="#b" x="29.996"/><use xlink:href="#28"/></svg><svg x="2400"><use xlink:href="#a"/><use xlink:href="#b" x="30.996"/><use xlink:href="#29"/></svg><svg x="2480"><use xlink:href="#a"/><use xlink:href="#b" x="31.996"/><use xlink:href="#30"/></svg><svg x="2560"><use xlink:href="#a"/><use xlink:href="#b" x="32.996"/><use xlink:href="#31"/></svg><svg x="2640"><use xlink:href="#a"/><use xlink:href="#b" x="33.996"/><use xlink:href="#32"/></svg><svg x="2720"><use xlink:href="#a"/><use xlink:href="#b" x="34.996"/><use xlink:href="#33"/></svg><svg x="2800"><use xlink:href="#a"/><use xlink:href="#b" x="35.996"/><use xlink:href="#34"/></svg><svg x="2880"><use xlink:href="#a"/><use xlink:href="#b" x="36.996"/><use xlink:href="#35"/></svg><svg x="2960"><use xlink:href="#a"/><use xlink:href="#b" x="37.996"/><use xlink:href="#36"/></svg><svg x="3040"><use xlink:href="#a"/><use xlink:href="#b" x="38.996"/><use xlink:href="#37"/></svg><svg x="3120"><use xlink:href="#a"/><use xlink:href="#b" x="39.996"/><use xlink:href="#38"/></svg><svg x="3200"><use xlink:href="#a"/><use xlink:href="#b" x="40.996"/><use xlink:href="#39"/></svg><svg x="3280"><use xlink:href="#a"/><use xlink:href="#b" x="41.996"/><use xlink:href="#40"/></svg><svg x="3360"><use xlink:href="#a"/><use xlink:href="#b" x="42.996"/><use xlink:href="#41"/></svg><svg x="3440"><use xlink:href="#a"/><use xlink:href="#b" x="43.996"/><use xlink:href="#42"/></svg><svg x="3520"><use xlink:href="#a"/><use xlink:href="#b" x="-.004" y="2.146"/><use xlink:href="#42"/></svg><svg x="3600"><use xlink:href="#a"/><use xlink:href="#b" x="-.004" y="4.317"/><use xlink:href="#42"/></svg><svg x="3680"><use xlink:href="#a"/><use xlink:href="#b" x="-.004" y="6.488"/><use xlink:href="#42"/><use xlink:href="#43" y="4.342"/></svg><svg x="3760"><use xlink:href="#a"/><use xlink:href="#b" x="-.004" y="8.659"/><use xlink:href="#42"/><use xlink:href="#43" y="4.342"/><use xlink:href="#44" y="6.513"/></svg><svg x="3840"><use xlink:href="#a"/><use xlink:href="#b" x="-.004" y="10.83"/><use xlink:href="#42"/><use xlink:href="#43" y="4.342"/><use xlink:href="#44" y="6.513"/><use xlink:href="#45" y="8.684"/></svg><svg x="3920"><use xlink:href="#a"/><use xlink:href="#b" x="-.004" y="13.001"/><use xlink:href="#42"/><use xlink:href="#43" y="4.342"/><use xlink:href="#44" y="6.513"/><use xlink:href="#45" y="8.684"/></svg><svg x="4000"><use xlink:href="#a"/><use xlink:href="#b" x="-.004" y="15.172"/><use xlink:href="#42"/><use xlink:href="#43" y="4.342"/><use xlink:href="#44" y="6.513"/><use xlink:href="#45" y="8.684"/><use xlink:href="#46" y="13.026"/></svg><svg x="4080"><use xlink:href="#a"/><use xlink:href="#b" x="-.004" y="17.343"/><use xlink:href="#42"/><use xlink:href="#43" y="4.342"/><use xlink:href="#44" y="6.513"/><use xlink:href="#45" y="8.684"/><use xlink:href="#46" y="13.026"/><use xlink:href="#47" y="15.197"/></svg><svg x="4160"><use xlink:href="#a"/><use xlink:href="#b" x="-.004" y="19.514"/><use xlink:href="#42"/><use xlink:href="#43" y="4.342"/><use xlink:href="#44" y="6.513"/><use xlink:href="#45" y="8.684"/><use xlink:href="#46" y="13.026"/><use xlink:href="#47" y="15.197"/></svg><svg x="4240"><use xlink:href="#a"/><use xlink:href="#b" x="1.996" y="19.514"/><use xlink:href="#42"/><use xlink:href="#43" y="4.342"/><use xlink:href="#44" y="6.513"/><use xlink:href="#45" y="8.684"/><use xlink:href="#46" y="13.026"/><use xlink:href="#47" y="15.197"/><use xlink:href="#1" y="19.539"/></svg><svg x="4320"><use xlink:href="#a"/><use xlink:href="#b" x="2.996" y="19.514"/><use xlink:href="#42"/><use xlink:href="#43" y="4.342"/><use xlink:href="#44" y="6.513"/><use xlink:href="#45" y="8.684"/><use xlink:href="#46" y="13.026"/><use xlink:href="#47" y="15.197"/><use xlink:href="#2" y="19.539"/></svg><svg x="4400"><use xlink:href="#a"/><use xlink:href="#b" x="3.996" y="19.514"/><use xlink:href="#42"/><use xlink:href="#43" y="4.342"/><use xlink:href="#44" y="6.513"/><use xlink:href="#45" y="8.684"/><use xlink:href="#46" y="13.026"/><use xlink:href="#47" y="15.197"/><use xlink:href="#3" y="19.539"/></svg><svg x="4480"><use xlink:href="#a"/><use xlink:href="#b" x="4.996" y="19.514"/><use xlink:href="#42"/><use xlink:href="#43" y="4.342"/><use xlink:href="#44" y="6.513"/><use xlink:href="#45" y="8.684"/><use xlink:href="#46" y="13.026"/><use xlink:href="#47" y="15.197"/><use xlink:href="#4" y="19.539"/></svg><svg x="4560"><use xlink:href="#a"/><use xlink:href="#b" x="5.996" y="19.514"/><use xlink:href="#42"/><use xlink:href="#43" y="4.342"/><use xlink:href="#44" y="6.513"/><use xlink:href="#45" y="8.684"/><use xlink:href="#46" y="13.026"/><use xlink:href="#47" y="15.197"/><use xlink:href="#4" y="19.539"/></svg><svg x="4640"><use xlink:href="#a"/><use xlink:href="#b" x="6.996" y="19.514"/><use xlink:href="#42"/><use xlink:href="#43" y="4.342"/><use xlink:href="#44" y="6.513"/><use xlink:href="#45" y="8.684"/><use xlink:href="#46" y="13.026"/><use xlink:href="#47" y="15.197"/><use xlink:href="#5" y="19.539"/></svg><svg x="4720"><use xlink:href="#a"/><use xlink:href="#b" x="7.996" y="19.514"/><use xlink:href="#42"/><use xlink:href="#43" y="4.342"/><use xlink:href="#44" y="6.513"/><use xlink:href="#45" y="8.684"/><use xlink:href="#46" y="13.026"/><use xlink:href="#47" y="15.197"/><use xlink:href="#6" y="19.539"/></svg><svg x="4800"><use xlink:href="#a"/><use xlink:href="#b" x="8.996" y="19.514"/><use xlink:href="#42"/><use xlink:href="#43" y="4.342"/><use xlink:href="#44" y="6.513"/><use xlink:href="#45" y="8.684"/><use xlink:href="#46" y="13.026"/><use xlink:href="#47" y="15.197"/><use xlink:href="#7" y="19.539"/></svg><svg x="4880"><use xlink:href="#a"/><use xlink:href="#b" x="9.996" y="19.514"/><use xlink:href="#42"/><use xlink:href="#43" y="4.342"/><use xlink:href="#44" y="6.513"/><use xlink:href="#45" y="8.684"/><use xlink:href="#46" y="13.026"/><use xlink:href="#47" y="15.197"/><use xlink:href="#8" y="19.539"/></svg><svg x="4960"><use xlink:href="#a"/><use xlink:href="#b" x="10.996" y="19.514"/><use xlink:href="#42"/><use xlink:href="#43" y="4.342"/><use xlink:href="#44" y="6.513"/><use xlink:href="#45" y="8.684"/><use xlink:href="#46" y="13.026"/><use xlink:href="#47" y="15.197"/><use xlink:href="#9" y="19.539"/></svg><svg x="5040"><use xlink:href="#a"/><use xlink:href="#b" x="11.996" y="19.514"/><use xlink:href="#42"/><use xlink:href="#43" y="4.342"/><use xlink:href="#44" y="6.513"/><use xlink:href="#45" y="8.684"/><use xlink:href="#46" y="13.026"/><use xlink:href="#47" y="15.197"/><use xlink:href="#10" y="19.539"/></svg><svg x="5120"><use xlink:href="#a"/><use xlink:href="#b" x="12.996" y="19.514"/><use xlink:href="#42"/><use xlink:href="#43" y="4.342"/><use xlink:href="#44" y="6.513"/><use xlink:href="#45" y="8.684"/><use xlink:href="#46" y="13.026"/><use xlink:href="#47" y="15.197"/><use xlink:href="#11" y="19.539"/></svg><svg x="5200"><use xlink:href="#a"/><use xlink:href="#b" x="13.996" y="19.514"/><use xlink:href="#42"/><use xlink:href="#43" y="4.342"/><use xlink:href="#44" y="6.513"/><use xlink:href="#45" y="8.684"/><use xlink:href="#46" y="13.026"/><use xlink:href="#47" y="15.197"/><use xlink:href="#12" y="19.539"/></svg><svg x="5280"><use xlink:href="#a"/><use xlink:href="#b" x="14.996" y="19.514"/><use xlink:href="#42"/><use xlink:href="#43" y="4.342"/><use xlink:href="#44" y="6.513"/><use xlink:href="#45" y="8.684"/><use xlink:href="#46" y="13.026"/><use xlink:href="#47" y="15.197"/><use xlink:href="#13" y="19.539"/></svg><svg x="5360"><use xlink:href="#a"/><use xlink:href="#b" x="15.996" y="19.514"/><use xlink:href="#42"/><use xlink:href="#43" y="4.342"/><use xlink:href="#44" y="6.513"/><use xlink:href="#45" y="8.684"/><use xlink:href="#46" y="13.026"/><use xlink:href="#47" y="15.197"/><use xlink:href="#14" y="19.539"/></svg><svg x="5440"><use xlink:href="#a"/><use xlink:href="#b" x="16.996" y="19.514"/><use xlink:href="#42"/><use xlink:href="#43" y="4.342"/><use xlink:href="#44" y="6.513"/><use xlink:href="#45" y="8.684"/><use xlink:href="#46" y="13.026"/><use xlink:href="#47" y="15.197"/><use xlink:href="#15" y="19.539"/></svg><svg x="5520"><use xlink:href="#a"/><use xlink:href="#b" x="17.996" y="19.514"/><use xlink:href="#42"/><use xlink:href="#43" y="4.342"/><use xlink:href="#44" y="6.513"/><use xlink:href="#45" y="8.684"/><use xlink:href="#46" y="13.026"/><use xlink:href="#47" y="15.197"/><use xlink:href="#16" y="19.539"/></svg><svg x="5600"><use xlink:href="#a"/><use xlink:href="#b" x="18.996" y="19.514"/><use xlink:href="#42"/><use xlink:href="#43" y="4.342"/><use xlink:href="#44" y="6.513"/><use xlink:href="#45" y="8.684"/><use xlink:href="#46" y="13.026"/><use xlink:href="#47" y="15.197"/><use xlink:href="#17" y="19.539"/></svg><svg x="5680"><use xlink:href="#a"/><use xlink:href="#b" x="19.996" y="19.514"/><use xlink:href="#42"/><use xlink:href="#43" y="4.342"/><use xlink:href="#44" y="6.513"/><use xlink:href="#45" y="8.684"/><use xlink:href="#46" y="13.026"/><use xlink:href="#47" y="15.197"/><use xlink:href="#18" y="19.539"/></svg><svg x="5760"><use xlink:href="#a"/><use xlink:href="#b" x="20.996" y="19.514"/><use xlink:href="#42"/><use xlink:href="#43" y="4.342"/><use xlink:href="#44" y="6.513"/><use xlink:href="#45" y="8.684"/><use xlink:href="#46" y="13.026"/><use xlink:href="#47" y="15.197"/><use xlink:href="#19" y="19.539"/></svg><svg x="5840"><use xlink:href="#a"/><use xlink:href="#b" x="21.996" y="19.514"/><use xlink:href="#42"/><use xlink:href="#43" y="4.342"/><use xlink:href="#44" y="6.513"/><use xlink:href="#45" y="8.684"/><use xlink:href="#46" y="13.026"/><use xlink:href="#47" y="15.197"/><use xlink:href="#20" y="19.539"/></svg><svg x="5920"><use xlink:href="#a"/><use xlink:href="#b" x="22.996" y="19.514"/><use xlink:href="#42"/><use xlink:href="#43" y="4.342"/><use xlink:href="#44" y="6.513"/><use xlink:href="#45" y="8.684"/><use xlink:href="#46" y="13.026"/><use xlink:href="#47" y="15.197"/><use xlink:href="#21" y="19.539"/></svg><svg x="6000"><use xlink:href="#a"/><use xlink:href="#b" x="23.996" y="19.514"/><use xlink:href="#42"/><use xlink:href="#43" y="4.342"/><use xlink:href="#44" y="6.513"/><use xlink:href="#45" y="8.684"/><use xlink:href="#46" y="13.026"/><use xlink:href="#47" y="15.197"/><use xlink:href="#22" y="19.539"/></svg><svg x="6080"><use xlink:href="#a"/><use xlink:href="#b" x="24.996" y="19.514"/><use xlink:href="#42"/><use xlink:href="#43" y="4.342"/><use xlink:href="#44" y="6.513"/><use xlink:href="#45" y="8.684"/><use xlink:href="#46" y="13.026"/><use xlink:href="#47" y="15.197"/><use xlink:href="#23" y="19.539"/></svg><svg x="6160"><use xlink:href="#a"/><use xlink:href="#b" x="25.996" y="19.514"/><use xlink:href="#42"/><use xlink:href="#43" y="4.342"/><use xlink:href="#44" y="6.513"/><use xlink:href="#45" y="8.684"/><use xlink:href="#46" y="13.026"/><use xlink:href="#47" y="15.197"/><use xlink:href="#24" y="19.539"/></svg><svg x="6240"><use xlink:href="#a"/><use xlink:href="#b" x="26.996" y="19.514"/><use xlink:href="#42"/><use xlink:href="#43" y="4.342"/><use xlink:href="#44" y="6.513"/><use xlink:href="#45" y="8.684"/><use xlink:href="#46" y="13.026"/><use xlink:href="#47" y="15.197"/><use xlink:href="#25" y="19.539"/></svg><svg x="6320"><use xlink:href="#a"/><use xlink:href="#b" x="27.996" y="19.514"/><use xlink:href="#42"/><use xlink:href="#43" y="4.342"/><use xlink:href="#44" y="6.513"/><use xlink:href="#45" y="8.684"/><use xlink:href="#46" y="13.026"/><use xlink:href="#47" y="15.197"/><use xlink:href="#26" y="19.539"/></svg><svg x="6400"><use xlink:href="#a"/><use xlink:href="#b" x="28.996" y="19.514"/><use xlink:href="#42"/><use xlink:href="#43" y="4.342"/><use xlink:href="#44" y="6.513"/><use xlink:href="#45" y="8.684"/><use xlink:href="#46" y="13.026"/><use xlink:href="#47" y="15.197"/><use xlink:href="#27" y="19.539"/></svg><svg x="6480"><use xlink:href="#a"/><use xlink:href="#b" x="29.996" y="19.514"/><use xlink:href="#42"/><use xlink:href="#43" y="4.342"/><use xlink:href="#44" y="6.513"/><use xlink:href="#45" y="8.684"/><use xlink:href="#46" y="13.026"/><use xlink:href="#47" y="15.197"/><use xlink:href="#28" y="19.539"/></svg><svg x="6560"><use xlink:href="#a"/><use xlink:href="#b" x="30.996" y="19.514"/><use xlink:href="#42"/><use xlink:href="#43" y="4.342"/><use xlink:href="#44" y="6.513"/><use xlink:href="#45" y="8.684"/><use xlink:href="#46" y="13.026"/><use xlink:href="#47" y="15.197"/><use xlink:href="#29" y="19.539"/></svg><svg x="6640"><use xlink:href="#a"/><use xlink:href="#b" x="31.996" y="19.514"/><use xlink:href="#42"/><use xlink:href="#43" y="4.342"/><use xlink:href="#44" y="6.513"/><use xlink:href="#45" y="8.684"/><use xlink:href="#46" y="13.026"/><use xlink:href="#47" y="15.197"/><use xlink:href="#30" y="19.539"/></svg><svg x="6720"><use xlink:href="#a"/><use xlink:href="#b" x="32.996" y="19.514"/><use xlink:href="#42"/><use xlink:href="#43" y="4.342"/><use xlink:href="#44" y="6.513"/><use xlink:href="#45" y="8.684"/><use xlink:href="#46" y="13.026"/><use xlink:href="#47" y="15.197"/><use xlink:href="#31" y="19.539"/></svg><svg x="6800"><use xlink:href="#a"/><use xlink:href="#b" x="33.996" y="19.514"/><use xlink:href="#42"/><use xlink:href="#43" y="4.342"/><use xlink:href="#44" y="6.513"/><use xlink:href="#45" y="8.684"/><use xlink:href="#46" y="13.026"/><use xlink:href="#47" y="15.197"/><use xlink:href="#32" y="19.539"/></svg><svg x="6880"><use xlink:href="#a"/><use xlink:href="#b" x="34.996" y="19.514"/><use xlink:href="#42"/><use xlink:href="#43" y="4.342"/><use xlink:href="#44" y="6.513"/><use xlink:href="#45" y="8.684"/><use xlink:href="#46" y="13.026"/><use xlink:href="#47" y="15.197"/><use xlink:href="#33" y="19.539"/></svg><svg x="6960"><use xlink:href="#a"/><use xlink:href="#b" x="35.996" y="19.514"/><use xlink:href="#42"/><use xlink:href="#43" y="4.342"/><use xlink:href="#44" y="6.513"/><use xlink:href="#45" y="8.684"/><use xlink:href="#46" y="13.026"/><use xlink:href="#47" y="15.197"/><use xlink:href="#34" y="19.539"/></svg><svg x="7040"><use xlink:href="#a"/><use xlink:href="#b" x="36.996" y="19.514"/><use xlink:href="#42"/><use xlink:href="#43" y="4.342"/><use xlink:href="#44" y="6.513"/><use xlink:href="#45" y="8.684"/><use xlink:href="#46" y="13.026"/><use xlink:href="#47" y="15.197"/><use xlink:href="#35" y="19.539"/></svg><svg x="7120"><use xlink:href="#a"/><use xlink:href="#b" x="37.996" y="19.514"/><use xlink:href="#42"/><use xlink:href="#43" y="4.342"/><use xlink:href="#44" y="6.513"/><use xlink:href="#45" y="8.684"/><use xlink:href="#46" y="13.026"/><use xlink:href="#47" y="15.197"/><use xlink:href="#36" y="19.539"/></svg><svg x="7200"><use xlink:href="#a"/><use xlink:href="#b" x="38.996" y="19.514"/><use xlink:href="#42"/><use xlink:href="#43" y="4.342"/><use xlink:href="#44" y="6.513"/><use xlink:href="#45" y="8.684"/><use xlink:href="#46" y="13.026"/><use xlink:href="#47" y="15.197"/><use xlink:href="#37" y="19.539"/></svg><svg x="7280"><use xlink:href="#a"/><use xlink:href="#b" x="39.996" y="19.514"/><use xlink:href="#42"/><use xlink:href="#43" y="4.342"/><use xlink:href="#44" y="6.513"/><use xlink:href="#45" y="8.684"/><use xlink:href="#46" y="13.026"/><use xlink:href="#47" y="15.197"/><use xlink:href="#38" y="19.539"/></svg><svg x="7360"><use xlink:href="#a"/><use xlink:href="#b" x="40.996" y="19.514"/><use xlink:href="#42"/><use xlink:href="#43" y="4.342"/><use xlink:href="#44" y="6.513"/><use xlink:href="#45" y="8.684"/><use xlink:href="#46" y="13.026"/><use xlink:href="#47" y="15.197"/><use xlink:href="#39" y="19.539"/></svg><svg x="7440"><use xlink:href="#a"/><use xlink:href="#b" x="41.996" y="19.514"/><use xlink:href="#42"/><use xlink:href="#43" y="4.342"/><use xlink:href="#44" y="6.513"/><use xlink:href="#45" y="8.684"/><use xlink:href="#46" y="13.026"/><use xlink:href="#47" y="15.197"/><use xlink:href="#40" y="19.539"/></svg><svg x="7520"><use xlink:href="#a"/><use xlink:href="#b" x="42.996" y="19.514"/><use xlink:href="#42"/><use xlink:href="#43" y="4.342"/><use xlink:href="#44" y="6.513"/><use xlink:href="#45" y="8.684"/><use xlink:href="#46" y="13.026"/><use xlink:href="#47" y="15.197"/><use xlink:href="#41" y="19.539"/></svg><svg x="7600"><use xlink:href="#a"/><use xlink:href="#b" x="43.996" y="19.514"/><use xlink:href="#42"/><use xlink:href="#43" y="4.342"/><use xlink:href="#44" y="6.513"/><use xlink:href="#45" y="8.684"/><use xlink:href="#46" y="13.026"/><use xlink:href="#47" y="15.197"/><use xlink:href="#42" y="19.539"/></svg><svg x="7680"><use xlink:href="#a"/><use xlink:href="#b" x="44.996" y="19.514"/><use xlink:href="#42"/><use xlink:href="#43" y="4.342"/><use xlink:href="#44" y="6.513"/><use xlink:href="#45" y="8.684"/><use xlink:href="#46" y="13.026"/><use xlink:href="#47" y="15.197"/><use xlink:href="#42" y="19.539"/></svg><svg x="7760"><use xlink:href="#a"/><use xlink:href="#b" x="45.996" y="19.514"/><use xlink:href="#42"/><use xlink:href="#43" y="4.342"/><use xlink:href="#44" y="6.513"/><use xlink:href="#45" y="8.684"/><use xlink:href="#46" y="13.026"/><use xlink:href="#47" y="15.197"/><text y="21.209" class="f">$</text><text x="2.004" y="21.209" class="f">npx</text><text x="6.012" y="21.209" class="f">@bytespell/model-provider-usage-limits</text><text x="45.09" y="21.209" class="f">-</text></svg><svg x="7840"><use xlink:href="#a"/><use xlink:href="#b" x="46.996" y="19.514"/><use xlink:href="#42"/><use xlink:href="#43" y="4.342"/><use xlink:href="#44" y="6.513"/><use xlink:href="#45" y="8.684"/><use xlink:href="#46" y="13.026"/><use xlink:href="#47" y="15.197"/><text y="21.209" class="f">$</text><text x="2.004" y="21.209" class="f">npx</text><text x="6.012" y="21.209" class="f">@bytespell/model-provider-usage-limits</text><text x="45.09" y="21.209" class="f">--</text></svg><svg x="7920"><use xlink:href="#a"/><use xlink:href="#b" x="47.996" y="19.514"/><use xlink:href="#42"/><use xlink:href="#43" y="4.342"/><use xlink:href="#44" y="6.513"/><use xlink:href="#45" y="8.684"/><use xlink:href="#46" y="13.026"/><use xlink:href="#47" y="15.197"/><text y="21.209" class="f">$</text><text x="2.004" y="21.209" class="f">npx</text><text x="6.012" y="21.209" class="f">@bytespell/model-provider-usage-limits</text><text x="45.09" y="21.209" class="f">--r</text></svg><svg x="8000"><use xlink:href="#a"/><use xlink:href="#b" x="48.996" y="19.514"/><use xlink:href="#42"/><use xlink:href="#43" y="4.342"/><use xlink:href="#44" y="6.513"/><use xlink:href="#45" y="8.684"/><use xlink:href="#46" y="13.026"/><use xlink:href="#47" y="15.197"/><text y="21.209" class="f">$</text><text x="2.004" y="21.209" class="f">npx</text><text x="6.012" y="21.209" class="f">@bytespell/model-provider-usage-limits</text><text x="45.09" y="21.209" class="f">--ro</text></svg><svg x="8080"><use xlink:href="#a"/><use xlink:href="#b" x="49.996" y="19.514"/><use xlink:href="#42"/><use xlink:href="#43" y="4.342"/><use xlink:href="#44" y="6.513"/><use xlink:href="#45" y="8.684"/><use xlink:href="#46" y="13.026"/><use xlink:href="#47" y="15.197"/><text y="21.209" class="f">$</text><text x="2.004" y="21.209" class="f">npx</text><text x="6.012" y="21.209" class="f">@bytespell/model-provider-usage-limits</text><text x="45.09" y="21.209" class="f">--rou</text></svg><svg x="8160"><use xlink:href="#a"/><use xlink:href="#b" x="50.996" y="19.514"/><use xlink:href="#42"/><use xlink:href="#43" y="4.342"/><use xlink:href="#44" y="6.513"/><use xlink:href="#45" y="8.684"/><use xlink:href="#46" y="13.026"/><use xlink:href="#47" y="15.197"/><text y="21.209" class="f">$</text><text x="2.004" y="21.209" class="f">npx</text><text x="6.012" y="21.209" class="f">@bytespell/model-provider-usage-limits</text><text x="45.09" y="21.209" class="f">--rout</text></svg><svg x="8240"><use xlink:href="#a"/><use xlink:href="#b" x="51.996" y="19.514"/><use xlink:href="#42"/><use xlink:href="#43" y="4.342"/><use xlink:href="#44" y="6.513"/><use xlink:href="#45" y="8.684"/><use xlink:href="#46" y="13.026"/><use xlink:href="#47" y="15.197"/><use xlink:href="#48" y="19.539"/></svg><svg x="8320"><use xlink:href="#a"/><use xlink:href="#b" x="52.996" y="19.514"/><use xlink:href="#42"/><use xlink:href="#43" y="4.342"/><use xlink:href="#44" y="6.513"/><use xlink:href="#45" y="8.684"/><use xlink:href="#46" y="13.026"/><use xlink:href="#47" y="15.197"/><use xlink:href="#48" y="19.539"/></svg><svg x="8400"><use xlink:href="#a"/><use xlink:href="#b" x="53.996" y="19.514"/><use xlink:href="#42"/><use xlink:href="#43" y="4.342"/><use xlink:href="#44" y="6.513"/><use xlink:href="#45" y="8.684"/><use xlink:href="#46" y="13.026"/><use xlink:href="#47" y="15.197"/><text y="21.209" class="f">$</text><text x="2.004" y="21.209" class="f">npx</text><text x="6.012" y="21.209" class="f">@bytespell/model-provider-usage-limits</text><text x="45.09" y="21.209" class="f">--route</text><text x="53.106" y="21.209" class="f">c</text></svg><svg x="8480"><use xlink:href="#a"/><use xlink:href="#b" x="54.996" y="19.514"/><use xlink:href="#42"/><use xlink:href="#43" y="4.342"/><use xlink:href="#44" y="6.513"/><use xlink:href="#45" y="8.684"/><use xlink:href="#46" y="13.026"/><use xlink:href="#47" y="15.197"/><text y="21.209" class="f">$</text><text x="2.004" y="21.209" class="f">npx</text><text x="6.012" y="21.209" class="f">@bytespell/model-provider-usage-limits</text><text x="45.09" y="21.209" class="f">--route</text><text x="53.106" y="21.209" class="f">cl</text></svg><svg x="8560"><use xlink:href="#a"/><use xlink:href="#b" x="55.996" y="19.514"/><use xlink:href="#42"/><use xlink:href="#43" y="4.342"/><use xlink:href="#44" y="6.513"/><use xlink:href="#45" y="8.684"/><use xlink:href="#46" y="13.026"/><use xlink:href="#47" y="15.197"/><text y="21.209" class="f">$</text><text x="2.004" y="21.209" class="f">npx</text><text x="6.012" y="21.209" class="f">@bytespell/model-provider-usage-limits</text><text x="45.09" y="21.209" class="f">--route</text><text x="53.106" y="21.209" class="f">cla</text></svg><svg x="8640"><use xlink:href="#a"/><use xlink:href="#b" x="56.996" y="19.514"/><use xlink:href="#42"/><use xlink:href="#43" y="4.342"/><use xlink:href="#44" y="6.513"/><use xlink:href="#45" y="8.684"/><use xlink:href="#46" y="13.026"/><use xlink:href="#47" y="15.197"/><text y="21.209" class="f">$</text><text x="2.004" y="21.209" class="f">npx</text><text x="6.012" y="21.209" class="f">@bytespell/model-provider-usage-limits</text><text x="45.09" y="21.209" class="f">--route</text><text x="53.106" y="21.209" class="f">clau</text></svg><svg x="8720"><use xlink:href="#a"/><use xlink:href="#b" x="57.996" y="19.514"/><use xlink:href="#42"/><use xlink:href="#43" y="4.342"/><use xlink:href="#44" y="6.513"/><use xlink:href="#45" y="8.684"/><use xlink:href="#46" y="13.026"/><use xlink:href="#47" y="15.197"/><text y="21.209" class="f">$</text><text x="2.004" y="21.209" class="f">npx</text><text x="6.012" y="21.209" class="f">@bytespell/model-provider-usage-limits</text><text x="45.09" y="21.209" class="f">--route</text><text x="53.106" y="21.209" class="f">claud</text></svg><svg x="8800"><use xlink:href="#a"/><use xlink:href="#b" x="58.996" y="19.514"/><use xlink:href="#42"/><use xlink:href="#43" y="4.342"/><use xlink:href="#44" y="6.513"/><use xlink:href="#45" y="8.684"/><use xlink:href="#46" y="13.026"/><use xlink:href="#47" y="15.197"/><text y="21.209" class="f">$</text><text x="2.004" y="21.209" class="f">npx</text><text x="6.012" y="21.209" class="f">@bytespell/model-provider-usage-limits</text><text x="45.09" y="21.209" class="f">--route</text><text x="53.106" y="21.209" class="f">claude</text></svg><svg x="8880"><use xlink:href="#a"/><use xlink:href="#b" x="59.996" y="19.514"/><use xlink:href="#42"/><use xlink:href="#43" y="4.342"/><use xlink:href="#44" y="6.513"/><use xlink:href="#45" y="8.684"/><use xlink:href="#46" y="13.026"/><use xlink:href="#47" y="15.197"/><text y="21.209" class="f">$</text><text x="2.004" y="21.209" class="f">npx</text><text x="6.012" y="21.209" class="f">@bytespell/model-provider-usage-limits</text><text x="45.09" y="21.209" class="f">--route</text><text x="53.106" y="21.209" class="f">claude-</text></svg><svg x="8960"><use xlink:href="#a"/><use xlink:href="#b" x="60.996" y="19.514"/><use xlink:href="#42"/><use xlink:href="#43" y="4.342"/><use xlink:href="#44" y="6.513"/><use xlink:href="#45" y="8.684"/><use xlink:href="#46" y="13.026"/><use xlink:href="#47" y="15.197"/><text y="21.209" class="f">$</text><text x="2.004" y="21.209" class="f">npx</text><text x="6.012" y="21.209" class="f">@bytespell/model-provider-usage-limits</text><text x="45.09" y="21.209" class="f">--route</text><text x="53.106" y="21.209" class="f">claude-s</text></svg><svg x="9040"><use xlink:href="#a"/><use xlink:href="#b" x="61.996" y="19.514"/><use xlink:href="#42"/><use xlink:href="#43" y="4.342"/><use xlink:href="#44" y="6.513"/><use xlink:href="#45" y="8.684"/><use xlink:href="#46" y="13.026"/><use xlink:href="#47" y="15.197"/><text y="21.209" class="f">$</text><text x="2.004" y="21.209" class="f">npx</text><text x="6.012" y="21.209" class="f">@bytespell/model-provider-usage-limits</text><text x="45.09" y="21.209" class="f">--route</text><text x="53.106" y="21.209" class="f">claude-so</text></svg><svg x="9120"><use xlink:href="#a"/><use xlink:href="#b" x="62.996" y="19.514"/><use xlink:href="#42"/><use xlink:href="#43" y="4.342"/><use xlink:href="#44" y="6.513"/><use xlink:href="#45" y="8.684"/><use xlink:href="#46" y="13.026"/><use xlink:href="#47" y="15.197"/><text y="21.209" class="f">$</text><text x="2.004" y="21.209" class="f">npx</text><text x="6.012" y="21.209" class="f">@bytespell/model-provider-usage-limits</text><text x="45.09" y="21.209" class="f">--route</text><text x="53.106" y="21.209" class="f">claude-son</text></svg><svg x="9200"><use xlink:href="#a"/><use xlink:href="#b" x="63.996" y="19.514"/><use xlink:href="#42"/><use xlink:href="#43" y="4.342"/><use xlink:href="#44" y="6.513"/><use xlink:href="#45" y="8.684"/><use xlink:href="#46" y="13.026"/><use xlink:href="#47" y="15.197"/><text y="21.209" class="f">$</text><text x="2.004" y="21.209" class="f">npx</text><text x="6.012" y="21.209" class="f">@bytespell/model-provider-usage-limits</text><text x="45.09" y="21.209" class="f">--route</text><text x="53.106" y="21.209" class="f">claude-sonn</text></svg><svg x="9280"><use xlink:href="#a"/><use xlink:href="#b" x="64.996" y="19.514"/><use xlink:href="#42"/><use xlink:href="#43" y="4.342"/><use xlink:href="#44" y="6.513"/><use xlink:href="#45" y="8.684"/><use xlink:href="#46" y="13.026"/><use xlink:href="#47" y="15.197"/><text y="21.209" class="f">$</text><text x="2.004" y="21.209" class="f">npx</text><text x="6.012" y="21.209" class="f">@bytespell/model-provider-usage-limits</text><text x="45.09" y="21.209" class="f">--route</text><text x="53.106" y="21.209" class="f">claude-sonne</text></svg><svg x="9360"><use xlink:href="#a"/><use xlink:href="#b" x="65.996" y="19.514"/><use xlink:href="#42"/><use xlink:href="#43" y="4.342"/><use xlink:href="#44" y="6.513"/><use xlink:href="#45" y="8.684"/><use xlink:href="#46" y="13.026"/><use xlink:href="#47" y="15.197"/><text y="21.209" class="f">$</text><text x="2.004" y="21.209" class="f">npx</text><text x="6.012" y="21.209" class="f">@bytespell/model-provider-usage-limits</text><text x="45.09" y="21.209" class="f">--route</text><text x="53.106" y="21.209" class="f">claude-sonnet</text></svg><svg x="9440"><use xlink:href="#a"/><use xlink:href="#b" x="66.996" y="19.514"/><use xlink:href="#42"/><use xlink:href="#43" y="4.342"/><use xlink:href="#44" y="6.513"/><use xlink:href="#45" y="8.684"/><use xlink:href="#46" y="13.026"/><use xlink:href="#47" y="15.197"/><text y="21.209" class="f">$</text><text x="2.004" y="21.209" class="f">npx</text><text x="6.012" y="21.209" class="f">@bytespell/model-provider-usage-limits</text><text x="45.09" y="21.209" class="f">--route</text><text x="53.106" y="21.209" class="f">claude-sonnet-</text></svg><svg x="9520"><use xlink:href="#a"/><use xlink:href="#b" x="67.996" y="19.514"/><use xlink:href="#42"/><use xlink:href="#43" y="4.342"/><use xlink:href="#44" y="6.513"/><use xlink:href="#45" y="8.684"/><use xlink:href="#46" y="13.026"/><use xlink:href="#47" y="15.197"/><text y="21.209" class="f">$</text><text x="2.004" y="21.209" class="f">npx</text><text x="6.012" y="21.209" class="f">@bytespell/model-provider-usage-limits</text><text x="45.09" y="21.209" class="f">--route</text><text x="53.106" y="21.209" class="f">claude-sonnet-4</text></svg><svg x="9600"><use xlink:href="#a"/><use xlink:href="#b" x="68.996" y="19.514"/><use xlink:href="#42"/><use xlink:href="#43" y="4.342"/><use xlink:href="#44" y="6.513"/><use xlink:href="#45" y="8.684"/><use xlink:href="#46" y="13.026"/><use xlink:href="#47" y="15.197"/><text y="21.209" class="f">$</text><text x="2.004" y="21.209" class="f">npx</text><text x="6.012" y="21.209" class="f">@bytespell/model-provider-usage-limits</text><text x="45.09" y="21.209" class="f">--route</text><text x="53.106" y="21.209" class="f">claude-sonnet-4-</text></svg><svg x="9680"><use xlink:href="#a"/><use xlink:href="#b" x="69.996" y="19.514"/><use xlink:href="#42"/><use xlink:href="#43" y="4.342"/><use xlink:href="#44" y="6.513"/><use xlink:href="#45" y="8.684"/><use xlink:href="#46" y="13.026"/><use xlink:href="#47" y="15.197"/><use xlink:href="#49" y="19.539"/></svg><svg x="9760"><use xlink:href="#a"/><use xlink:href="#b" x="-.004" y="21.685"/><use xlink:href="#42"/><use xlink:href="#43" y="4.342"/><use xlink:href="#44" y="6.513"/><use xlink:href="#45" y="8.684"/><use xlink:href="#46" y="13.026"/><use xlink:href="#47" y="15.197"/><use xlink:href="#49" y="19.539"/></svg><svg x="9840"><use xlink:href="#a"/><use xlink:href="#b" x="-.004" y="23.856"/><use xlink:href="#42"/><use xlink:href="#43" y="4.342"/><use xlink:href="#44" y="6.513"/><use xlink:href="#45" y="8.684"/><use xlink:href="#46" y="13.026"/><use xlink:href="#47" y="15.197"/><use xlink:href="#49" y="19.539"/></svg><svg x="9920"><use xlink:href="#a"/><use xlink:href="#b" x="-.004" y="26.027"/><use xlink:href="#42"/><use xlink:href="#43" y="4.342"/><use xlink:href="#44" y="6.513"/><use xlink:href="#45" y="8.684"/><use xlink:href="#46" y="13.026"/><use xlink:href="#47" y="15.197"/><use xlink:href="#49" y="19.539"/><use xlink:href="#50" y="23.881"/></svg><svg x="10000"><use xlink:href="#a"/><use xlink:href="#b" x="-.004" y="28.198"/><use xlink:href="#42"/><use xlink:href="#43" y="4.342"/><use xlink:href="#44" y="6.513"/><use xlink:href="#45" y="8.684"/><use xlink:href="#46" y="13.026"/><use xlink:href="#47" y="15.197"/><use xlink:href="#49" y="19.539"/><use xlink:href="#50" y="23.881"/><use xlink:href="#51" y="26.052"/></svg><svg x="10080"><use xlink:href="#a"/><use xlink:href="#b" x="-.004" y="30.369"/><use xlink:href="#42"/><use xlink:href="#43" y="4.342"/><use xlink:href="#44" y="6.513"/><use xlink:href="#45" y="8.684"/><use xlink:href="#46" y="13.026"/><use xlink:href="#47" y="15.197"/><use xlink:href="#49" y="19.539"/><use xlink:href="#50" y="23.881"/><use xlink:href="#51" y="26.052"/><use xlink:href="#52" y="28.223"/></svg><svg x="10160"><use xlink:href="#a"/><use xlink:href="#b" x="-.004" y="30.369"/><use xlink:href="#43" y="2.171"/><use xlink:href="#44" y="4.342"/><use xlink:href="#45" y="6.513"/><use xlink:href="#46" y="10.855"/><use xlink:href="#47" y="13.026"/><use xlink:href="#49" y="17.368"/><use xlink:href="#50" y="21.71"/><use xlink:href="#51" y="23.881"/><use xlink:href="#52" y="26.052"/></svg><svg x="10240"><use xlink:href="#a"/><use xlink:href="#b" x="1.996" y="30.369"/><use xlink:href="#43" y="2.171"/><use xlink:href="#44" y="4.342"/><use xlink:href="#45" y="6.513"/><use xlink:href="#46" y="10.855"/><use xlink:href="#47" y="13.026"/><use xlink:href="#49" y="17.368"/><use xlink:href="#50" y="21.71"/><use xlink:href="#51" y="23.881"/><use xlink:href="#52" y="26.052"/><use xlink:href="#1" y="30.394"/></svg></svg></g></g></svg></svg>